sorazora-serif-w4.ufo
<glyph name="dollar" format="2">
  <advance width="413"/>
  <unicode hex="0024"/>
  <outline>
    <contour>
      <point x="183.919" y="675.011" type="line"/>
      <point x="232.443" y="675.011" type="line"/>
      <point x="232.443" y="602.24" type="line"/>
      <point x="233.224" y="602.247"/>
      <point x="234.006" y="602.251"/>
      <point x="234.791" y="602.251" type="curve" smooth="yes"/>
      <point x="296.153" y="602.251"/>
      <point x="342.096" y="583.93"/>
      <point x="373.76" y="559.282" type="curve"/>
      <point x="368.403" y="551.304"/>
      <point x="365.107" y="527.936"/>
      <point x="363.887" y="510.367" type="curve" smooth="yes"/>
      <point x="360.782" y="465.874" type="line"/>
      <point x="341.515" y="465.874" type="line"/>
      <point x="339.822" y="479.74" type="line" smooth="yes"/>
      <point x="333.186" y="534.112"/>
      <point x="280.28" y="564.52"/>
      <point x="232.443" y="570.083" type="curve"/>
      <point x="232.443" y="355.423" type="line"/>
      <point x="291.144" y="314.189" type="line" smooth="yes"/>
      <point x="342.316" y="278.251"/>
      <point x="389.437" y="244.304"/>
      <point x="389.437" y="160.318" type="curve" smooth="yes"/>
      <point x="389.437" y="84.3746"/>
      <point x="339.673" y="-1.54002"/>
      <point x="232.443" y="-16.1099" type="curve"/>
      <point x="232.443" y="-88.7451" type="line"/>
      <point x="183.919" y="-88.7451" type="line"/>
      <point x="183.919" y="-17.7899" type="line"/>
      <point x="116.6" y="-13.7277"/>
      <point x="68.3161" y="15.8568"/>
      <point x="32.9072" y="43.459" type="curve"/>
      <point x="39.7852" y="65.3848"/>
      <point x="43.7363" y="89.7227"/>
      <point x="50.7988" y="149.659" type="curve"/>
      <point x="70.5811" y="149.659" type="line"/>
      <point x="71.7139" y="138.741" type="line" smooth="yes"/>
      <point x="76.6703" y="90.862"/>
      <point x="105.821" y="28.4626"/>
      <point x="183.919" y="17.5308" type="curve"/>
      <point x="183.919" y="286.21" type="line"/>
      <point x="132.782" y="321.906" type="line" smooth="yes"/>
      <point x="90.5469" y="351.387"/>
      <point x="52.792" y="389.912"/>
      <point x="52.792" y="447.526" type="curve" smooth="yes"/>
      <point x="52.792" y="509.613"/>
      <point x="99.5479" y="577.017"/>
      <point x="183.919" y="596.617" type="curve"/>
    </contour>
    <contour>
      <point x="232.443" y="252.337" type="curve"/>
      <point x="232.443" y="18.0313" type="line"/>
      <point x="286.573" y="28.1813"/>
      <point x="323.667" y="72.5267"/>
      <point x="323.667" y="121.053" type="curve" smooth="yes"/>
      <point x="323.667" y="188.292"/>
      <point x="282.908" y="217.109"/>
    </contour>
    <contour>
      <point x="183.919" y="389.592" type="curve"/>
      <point x="183.919" y="566.211" type="line"/>
      <point x="141.944" y="553.003"/>
      <point x="120.319" y="514.726"/>
      <point x="120.319" y="478.649" type="curve" smooth="yes"/>
      <point x="120.319" y="444.894"/>
      <point x="138.61" y="422.385"/>
    </contour>
  </outline>
</glyph>
<glyph name="percent" format="2">
  <advance width="615"/>
  <unicode hex="0025"/>
  <outline>
    <contour>
      <point x="489.099" y="588.717" type="line"/>
      <point x="537.388" y="588.717" type="line"/>
      <point x="125.536" y="-0.000976562" type="line"/>
      <point x="77.2461" y="-0.000976562" type="line"/>
    </contour>
    <contour>
      <point x="153.47" y="600.173" type="curve" smooth="yes"/>
      <point x="232.164" y="600.173"/>
      <point x="284.022" y="541.72"/>
      <point x="284.022" y="469.623" type="curve" smooth="yes"/>
      <point x="284" y="397.501"/>
      <point x="232.556" y="339.069"/>
      <point x="153.445" y="339.068" type="curve" smooth="yes"/>
      <point x="74.339" y="339.068"/>
      <point x="22.9092" y="397.523"/>
      <point x="22.9092" y="469.618" type="curve" smooth="yes"/>
      <point x="22.9316" y="541.725"/>
      <point x="74.7891" y="600.173"/>
    </contour>
    <contour>
      <point x="153.47" y="579.547" type="curve" smooth="yes"/>
      <point x="111.403" y="579.547"/>
      <point x="78.2617" y="537.783"/>
      <point x="78.2617" y="469.616" type="curve" smooth="yes"/>
      <point x="78.2832" y="401.464"/>
      <point x="111.836" y="359.694"/>
      <point x="153.443" y="359.694" type="curve" smooth="yes"/>
      <point x="195.028" y="359.694"/>
      <point x="228.641" y="400.587"/>
      <point x="228.641" y="469.625" type="curve" smooth="yes"/>
      <point x="228.641" y="538.662"/>
      <point x="195.513" y="579.547"/>
    </contour>
    <contour>
      <point x="461.165" y="-11.4531" type="curve" smooth="yes"/>
      <point x="382.47" y="-11.4531"/>
      <point x="330.612" y="46.999"/>
      <point x="330.612" y="119.092" type="curve" smooth="yes"/>
      <point x="330.635" y="191.201"/>
      <point x="382.072" y="249.643"/>
      <point x="461.187" y="249.646" type="curve" smooth="yes"/>
      <point x="540.286" y="249.646"/>
      <point x="591.725" y="191.193"/>
      <point x="591.725" y="119.102" type="curve" smooth="yes"/>
      <point x="591.703" y="46.9912"/>
      <point x="539.845" y="-11.4531"/>
    </contour>
    <contour>
      <point x="461.165" y="9.1709" type="curve" smooth="yes"/>
      <point x="503.23" y="9.1709"/>
      <point x="536.365" y="50.9365"/>
      <point x="536.365" y="119.102" type="curve" smooth="yes"/>
      <point x="536.344" y="187.251"/>
      <point x="502.801" y="229.022"/>
      <point x="461.202" y="229.022" type="curve" smooth="yes"/>
      <point x="419.703" y="229.02"/>
      <point x="386.001" y="188.299"/>
      <point x="386.001" y="119.045" type="curve" smooth="yes"/>
      <point x="386.001" y="50.0386"/>
      <point x="419.13" y="9.1709"/>
    </contour>
  </outline>
</glyph>
<glyph name="quotesingle" format="2">
  <advance width="149"/>
  <unicode hex="0027"/>
  <outline>
    <contour>
      <point x="62.3555" y="458.437" type="line"/>
      <point x="38.837" y="613.298"/>
      <point x="30.0363" y="639.549"/>
      <point x="28.224" y="644.955" type="curve" smooth="yes"/>
      <point x="27.9692" y="645.715"/>
      <point x="27.8525" y="646.063"/>
      <point x="27.8525" y="646.299" type="curve" smooth="yes"/>
      <point x="27.8525" y="652.298"/>
      <point x="44.5381" y="657.342"/>
      <point x="66.4531" y="657.342" type="curve" smooth="yes"/>
      <point x="88.6022" y="657.342"/>
      <point x="122.487" y="645.837"/>
      <point x="122.487" y="623.01" type="curve" smooth="yes"/>
      <point x="122.487" y="621.052"/>
      <point x="122.238" y="619.009"/>
      <point x="121.71" y="616.884" type="curve" smooth="yes"/>
      <point x="82.3369" y="458.437" type="line"/>
    </contour>
  </outline>
</glyph>
<glyph name="parenleft" format="2">
  <advance width="353"/>
  <unicode hex="0028"/>
  <outline>
    <contour>
      <point x="137.174" y="187.456" type="curve" smooth="yes"/>
      <point x="137.174" y="-69.4245"/>
      <point x="213.474" y="-144.876"/>
      <point x="326.212" y="-186.145" type="curve"/>
      <point x="326.212" y="-213.806" type="line"/>
      <point x="211.514" y="-197.677"/>
      <point x="116.008" y="-132.195"/>
      <point x="76.6934" y="-13.6504" type="curve" smooth="yes"/>
      <point x="58.8828" y="40.0469"/>
      <point x="50.9814" y="104.561"/>
      <point x="50.9814" y="187.456" type="curve" smooth="yes"/>
      <point x="50.9814" y="270.352"/>
      <point x="58.8828" y="334.865"/>
      <point x="76.6934" y="388.562" type="curve" smooth="yes"/>
      <point x="116.008" y="507.107"/>
      <point x="211.514" y="572.589"/>
      <point x="326.212" y="588.718" type="curve"/>
      <point x="326.212" y="561.057" type="line"/>
      <point x="213.441" y="519.776"/>
      <point x="137.174" y="444.293"/>
    </contour>
  </outline>
</glyph>
<glyph name="parenright" format="2">
  <advance width="353"/>
  <unicode hex="0029"/>
  <outline>
    <contour>
      <point x="216.148" y="187.456" type="curve" smooth="yes"/>
      <point x="216.148" y="444.336"/>
      <point x="139.847" y="519.788"/>
      <point x="27.1104" y="561.057" type="curve"/>
      <point x="27.1104" y="588.718" type="line"/>
      <point x="141.809" y="572.589"/>
      <point x="237.314" y="507.107"/>
      <point x="276.629" y="388.562" type="curve" smooth="yes"/>
      <point x="294.439" y="334.865"/>
      <point x="302.34" y="270.352"/>
      <point x="302.34" y="187.456" type="curve" smooth="yes"/>
      <point x="302.34" y="104.561"/>
      <point x="294.439" y="40.0469"/>
      <point x="276.629" y="-13.6504" type="curve" smooth="yes"/>
      <point x="237.314" y="-132.195"/>
      <point x="141.809" y="-197.677"/>
      <point x="27.1104" y="-213.806" type="curve"/>
      <point x="27.1104" y="-186.145" type="line"/>
      <point x="139.88" y="-144.864"/>
      <point x="216.148" y="-69.38"/>
    </contour>
  </outline>
</glyph>
<glyph name="plus" format="2">
  <advance width="471"/>
  <unicode hex="002B"/>
  <outline>
    <contour>
      <point x="206.488" y="226.886" type="line"/>
      <point x="206.488" y="391.025" type="line"/>
      <point x="264.225" y="391.025" type="line"/>
      <point x="264.225" y="226.886" type="line"/>
      <point x="431.781" y="226.886" type="line"/>
      <point x="431.781" y="173.057" type="line"/>
      <point x="264.225" y="173.057" type="line"/>
      <point x="264.225" y="-9.61035" type="line"/>
      <point x="206.488" y="-9.61035" type="line"/>
      <point x="206.488" y="173.057" type="line"/>
      <point x="38.9316" y="173.057" type="line"/>
      <point x="38.9316" y="226.886" type="line"/>
    </contour>
  </outline>
</glyph>
<glyph name="zero" format="2">
  <advance width="473"/>
  <unicode hex="0030"/>
  <outline>
    <contour>
      <point x="236.637" y="384.77" type="curve" smooth="yes"/>
      <point x="165.468" y="384.77"/>
      <point x="99.1396" y="318.828"/>
      <point x="99.1396" y="201.02" type="curve" smooth="yes"/>
      <point x="99.1396" y="83.2109"/>
      <point x="166.063" y="17.2695"/>
      <point x="236.637" y="17.2695" type="curve" smooth="yes"/>
      <point x="307.21" y="17.2695"/>
      <point x="374.127" y="83.2109"/>
      <point x="374.127" y="201.02" type="curve" smooth="yes"/>
      <point x="374.127" y="318.828"/>
      <point x="307.806" y="384.77"/>
    </contour>
    <contour>
      <point x="236.637" y="415.221" type="curve" smooth="yes"/>
      <point x="343.928" y="415.221"/>
      <point x="443.773" y="335.169"/>
      <point x="443.773" y="201.02" type="curve" smooth="yes"/>
      <point x="443.773" y="66.8701"/>
      <point x="339.058" y="-13.1807"/>
      <point x="236.637" y="-13.1807" type="curve" smooth="yes"/>
      <point x="134.216" y="-13.1807"/>
      <point x="29.4932" y="66.8701"/>
      <point x="29.4932" y="201.02" type="curve" smooth="yes"/>
      <point x="29.4932" y="335.169"/>
      <point x="129.346" y="415.221"/>
    </contour>
  </outline>
</glyph>
<glyph name="two" format="2">
  <advance width="335"/>
  <unicode hex="0032"/>
  <outline>
    <contour>
      <point x="18" y="17" type="line"/>
      <point x="35.7106" y="76.4571"/>
      <point x="83.3262" y="116.979"/>
      <point x="127.423" y="154.506" type="curve" smooth="yes"/>
      <point x="173.644" y="193.842"/>
      <point x="216" y="229.887"/>
      <point x="216" y="281" type="curve" smooth="yes"/>
      <point x="216" y="330"/>
      <point x="179" y="362"/>
      <point x="132" y="362" type="curve" smooth="yes"/>
      <point x="95" y="362"/>
      <point x="59" y="343"/>
      <point x="48" y="313" type="curve"/>
      <point x="24" y="313" type="line"/>
      <point x="39" y="374"/>
      <point x="94" y="414"/>
      <point x="163" y="414" type="curve" smooth="yes"/>
      <point x="235" y="414"/>
      <point x="294" y="369"/>
      <point x="294" y="302" type="curve" smooth="yes"/>
      <point x="294" y="250.154"/>
      <point x="259.208" y="223.161"/>
      <point x="201.516" y="178.4" type="curve" smooth="yes"/>
      <point x="201.344" y="178.267"/>
      <point x="201.172" y="178.134"/>
      <point x="201" y="178" type="curve" smooth="yes"/>
      <point x="197.54" y="175.405"/>
      <point x="194.267" y="172.436"/>
      <point x="190.938" y="169.416" type="curve" smooth="yes"/>
      <point x="186.571" y="165.454"/>
      <point x="182.107" y="161.405"/>
      <point x="177" y="158" type="curve" smooth="yes"/>
      <point x="127" y="118"/>
      <point x="104" y="96"/>
      <point x="91" y="65" type="curve"/>
      <point x="277" y="65" type="line" smooth="yes"/>
      <point x="296" y="65"/>
      <point x="300" y="71"/>
      <point x="307" y="89" type="curve"/>
      <point x="325" y="89" type="line"/>
      <point x="307" y="20" type="line" smooth="yes"/>
      <point x="306.694" y="18.6241"/>
      <point x="306.412" y="17.3651"/>
      <point x="306.149" y="16.1944" type="curve" smooth="yes"/>
      <point x="304.694" y="9.70691"/>
      <point x="303.847" y="5.92989"/>
      <point x="303" y="0" type="curve"/>
      <point x="18" y="0" type="line"/>
    </contour>
  </outline>
</glyph>
<glyph name="three" format="2">
  <advance width="325"/>
  <unicode hex="0033"/>
  <outline>
    <contour>
      <point x="15" y="343" type="line"/>
      <point x="46" y="383"/>
      <point x="94" y="414"/>
      <point x="150" y="414" type="curve" smooth="yes"/>
      <point x="218" y="414"/>
      <point x="266" y="370"/>
      <point x="266" y="309" type="curve" smooth="yes"/>
      <point x="266" y="257"/>
      <point x="230" y="217"/>
      <point x="183" y="190" type="curve"/>
      <point x="244" y="172"/>
      <point x="290" y="121"/>
      <point x="290" y="33" type="curve" smooth="yes"/>
      <point x="290" y="-105"/>
      <point x="178" y="-209"/>
      <point x="12" y="-243" type="curve"/>
      <point x="2" y="-224" type="line"/>
      <point x="136" y="-182"/>
      <point x="208" y="-97"/>
      <point x="208" y="4" type="curve" smooth="yes"/>
      <point x="208" y="94"/>
      <point x="150" y="150"/>
      <point x="72" y="161" type="curve"/>
      <point x="72" y="178" type="line"/>
      <point x="127" y="193"/>
      <point x="185" y="231"/>
      <point x="185" y="290" type="curve" smooth="yes"/>
      <point x="185" y="339"/>
      <point x="146" y="365"/>
      <point x="109" y="365" type="curve" smooth="yes"/>
      <point x="79" y="365"/>
      <point x="51" y="347"/>
      <point x="34" y="330" type="curve"/>
    </contour>
  </outline>
</glyph>
<glyph name="four" format="2">
  <advance width="478"/>
  <unicode hex="0034"/>
  <outline>
    <contour>
      <point x="342" y="-160" type="line" smooth="yes"/>
      <point x="342" y="-174.489"/>
      <point x="347.85" y="-192.7"/>
      <point x="348" y="-193" type="curve" smooth="yes"/>
      <point x="269" y="-238" type="line"/>
      <point x="259" y="-232" type="line"/>
      <point x="261" y="-218"/>
      <point x="261" y="-204"/>
      <point x="261" y="-189" type="curve" smooth="yes"/>
      <point x="261" y="19" type="line"/>
      <point x="46" y="19" type="line" smooth="yes"/>
      <point x="20" y="19"/>
      <point x="17" y="18"/>
      <point x="2" y="8" type="curve"/>
      <point x="-10" y="17" type="line"/>
      <point x="320" y="415" type="line"/>
      <point x="342" y="415" type="line"/>
      <point x="342" y="73" type="line"/>
      <point x="415" y="73" type="line" smooth="yes"/>
      <point x="437" y="73"/>
      <point x="464" y="73"/>
      <point x="482" y="75" type="curve"/>
      <point x="490" y="68" type="line"/>
      <point x="463" y="16" type="line"/>
      <point x="448" y="18"/>
      <point x="432" y="19"/>
      <point x="406" y="19" type="curve" smooth="yes"/>
      <point x="342" y="19" type="line"/>
    </contour>
    <contour>
      <point x="261" y="73" type="line"/>
      <point x="261" y="285" type="line"/>
      <point x="84" y="73" type="line"/>
    </contour>
  </outline>
</glyph>
<glyph name="five" format="2">
  <advance width="350"/>
  <unicode hex="0035"/>
  <outline>
    <contour>
      <point x="104" y="402" type="line"/>
      <point x="254" y="402" type="line" smooth="yes"/>
      <point x="278" y="402"/>
      <point x="285" y="406"/>
      <point x="291" y="419" type="curve"/>
      <point x="309" y="419" type="line"/>
      <point x="286" y="359" type="line" smooth="yes"/>
      <point x="285.367" y="357.1"/>
      <point x="284.633" y="355.301"/>
      <point x="283.863" y="353.411" type="curve" smooth="yes"/>
      <point x="282.201" y="349.332"/>
      <point x="280.367" y="344.834"/>
      <point x="279" y="338" type="curve"/>
      <point x="118" y="338" type="line"/>
      <point x="93" y="249" type="line"/>
      <point x="244" y="235"/>
      <point x="311" y="142"/>
      <point x="311" y="39" type="curve" smooth="yes"/>
      <point x="311" y="-87"/>
      <point x="211" y="-207"/>
      <point x="33" y="-243" type="curve"/>
      <point x="23" y="-224" type="line"/>
      <point x="141" y="-184"/>
      <point x="226" y="-108"/>
      <point x="226" y="2" type="curve" smooth="yes"/>
      <point x="226" y="84"/>
      <point x="177" y="169"/>
      <point x="39" y="184" type="curve"/>
    </contour>
  </outline>
</glyph>
<glyph name="eight" format="2">
  <advance width="433"/>
  <unicode hex="0038"/>
  <outline>
    <contour>
      <point x="224" y="596" type="curve" smooth="yes"/>
      <point x="310" y="596"/>
      <point x="374" y="539"/>
      <point x="374" y="473" type="curve" smooth="yes"/>
      <point x="374" y="423"/>
      <point x="339" y="375"/>
      <point x="273" y="334" type="curve"/>
      <point x="297" y="318" type="line"/>
      <point x="357" y="281"/>
      <point x="402" y="245"/>
      <point x="402" y="170" type="curve" smooth="yes"/>
      <point x="402" y="68"/>
      <point x="318" y="-8"/>
      <point x="213" y="-8" type="curve" smooth="yes"/>
      <point x="114" y="-8"/>
      <point x="34" y="60"/>
      <point x="34" y="155" type="curve" smooth="yes"/>
      <point x="34" y="236"/>
      <point x="92" y="286"/>
      <point x="170" y="310" type="curve"/>
      <point x="154" y="319" type="line"/>
      <point x="93" y="356"/>
      <point x="52" y="403"/>
      <point x="52" y="457" type="curve" smooth="yes"/>
      <point x="52" y="533"/>
      <point x="132" y="596"/>
    </contour>
    <contour>
      <point x="195" y="294" type="line"/>
      <point x="137" y="266"/>
      <point x="106" y="223"/>
      <point x="106" y="166" type="curve" smooth="yes"/>
      <point x="106" y="91"/>
      <point x="160" y="26"/>
      <point x="226" y="26" type="curve" smooth="yes"/>
      <point x="282" y="26"/>
      <point x="334" y="72"/>
      <point x="334" y="143" type="curve" smooth="yes"/>
      <point x="334" y="190"/>
      <point x="311" y="223"/>
      <point x="257" y="257" type="curve"/>
    </contour>
    <contour>
      <point x="246" y="350" type="line"/>
      <point x="277" y="376"/>
      <point x="307" y="402"/>
      <point x="307" y="454" type="curve" smooth="yes"/>
      <point x="307" y="514"/>
      <point x="266" y="566"/>
      <point x="210" y="566" type="curve" smooth="yes"/>
      <point x="168" y="566"/>
      <point x="116" y="537"/>
      <point x="116" y="482" type="curve" smooth="yes"/>
      <point x="116" y="439"/>
      <point x="148" y="412"/>
      <point x="202" y="378" type="curve" smooth="yes"/>
    </contour>
  </outline>
</glyph>
<glyph name="nine" format="2">
  <advance width="450"/>
  <unicode hex="0039"/>
  <outline>
    <contour>
      <point x="327" y="190" type="curve"/>
      <point x="320" y="312"/>
      <point x="261" y="376"/>
      <point x="198" y="376" type="curve" smooth="yes"/>
      <point x="144" y="376"/>
      <point x="106" y="329"/>
      <point x="106" y="266" type="curve" smooth="yes"/>
      <point x="106" y="196"/>
      <point x="152" y="124"/>
      <point x="226" y="124" type="curve" smooth="yes"/>
      <point x="270" y="124"/>
      <point x="300" y="149"/>
    </contour>
    <contour>
      <point x="327" y="143" type="curve"/>
      <point x="296" y="102"/>
      <point x="241" y="70"/>
      <point x="180" y="70" type="curve" smooth="yes"/>
      <point x="78" y="70"/>
      <point x="26" y="159"/>
      <point x="26" y="235" type="curve" smooth="yes"/>
      <point x="26" y="326"/>
      <point x="101" y="411"/>
      <point x="206" y="411" type="curve" smooth="yes"/>
      <point x="312" y="411"/>
      <point x="412" y="324"/>
      <point x="412" y="171" type="curve" smooth="yes"/>
      <point x="412" y="21"/>
      <point x="318" y="-181"/>
      <point x="49" y="-235" type="curve"/>
      <point x="44" y="-215" type="line"/>
      <point x="229" y="-165"/>
      <point x="319" y="-13"/>
    </contour>
  </outline>
</glyph>
<glyph name="colon" format="2">
  <advance width="179"/>
  <unicode hex="003A"/>
  <outline>
    <contour>
      <point x="150" y="41" type="curve" smooth="yes"/>
      <point x="150" y="8"/>
      <point x="123" y="-19"/>
      <point x="90" y="-19" type="curve" smooth="yes"/>
      <point x="57" y="-19"/>
      <point x="30" y="8"/>
      <point x="30" y="41" type="curve" smooth="yes"/>
      <point x="30" y="74"/>
      <point x="57" y="100"/>
      <point x="90" y="100" type="curve" smooth="yes"/>
      <point x="123" y="100"/>
      <point x="150" y="74"/>
    </contour>
    <contour>
      <point x="150" y="323" type="curve" smooth="yes"/>
      <point x="150" y="290"/>
      <point x="123" y="264"/>
      <point x="90" y="264" type="curve" smooth="yes"/>
      <point x="57" y="264"/>
      <point x="30" y="290"/>
      <point x="30" y="323" type="curve" smooth="yes"/>
      <point x="30" y="356"/>
      <point x="57" y="383"/>
      <point x="90" y="383" type="curve" smooth="yes"/>
      <point x="123" y="383"/>
      <point x="150" y="356"/>
    </contour>
  </outline>
</glyph>
<glyph name="equal" format="2">
  <advance width="471"/>
  <unicode hex="003D"/>
  <outline>
    <contour>
      <point x="38.9326" y="303.154" type="line"/>
      <point x="431.782" y="303.154" type="line"/>
      <point x="431.782" y="249.325" type="line"/>
      <point x="38.9326" y="249.325" type="line"/>
    </contour>
    <contour>
      <point x="38.9326" y="135.747" type="line"/>
      <point x="431.782" y="135.747" type="line"/>
      <point x="431.782" y="81.918" type="line"/>
      <point x="38.9326" y="81.918" type="line"/>
    </contour>
  </outline>
</glyph>
<glyph name="question" format="2">
  <advance width="280"/>
  <unicode hex="003F"/>
  <outline>
    <contour>
      <point x="142" y="41" type="curve" smooth="yes"/>
      <point x="142" y="8"/>
      <point x="115" y="-19"/>
      <point x="82" y="-19" type="curve" smooth="yes"/>
      <point x="49" y="-19"/>
      <point x="22" y="8"/>
      <point x="22" y="41" type="curve" smooth="yes"/>
      <point x="22" y="74"/>
      <point x="49" y="100"/>
      <point x="82" y="100" type="curve" smooth="yes"/>
      <point x="115" y="100"/>
      <point x="142" y="74"/>
    </contour>
    <contour>
      <point x="16" y="636" type="curve"/>
      <point x="102.705" y="617.033"/>
      <point x="246" y="505.844"/>
      <point x="246" y="383" type="curve" smooth="yes"/>
      <point x="246" y="331.954"/>
      <point x="222.326" y="311.163"/>
      <point x="164" y="282" type="curve" smooth="yes"/>
      <point x="132" y="266"/>
      <point x="101" y="250"/>
      <point x="98" y="226" type="curve" smooth="yes"/>
      <point x="89" y="162" type="line"/>
      <point x="68" y="162" type="line"/>
      <point x="63" y="198" type="line" smooth="yes"/>
      <point x="53" y="277"/>
      <point x="49" y="295"/>
      <point x="44" y="309" type="curve"/>
      <point x="95" y="335"/>
      <point x="154" y="369"/>
      <point x="189" y="393" type="curve" smooth="yes"/>
      <point x="201" y="401"/>
      <point x="207" y="407"/>
      <point x="207" y="428" type="curve" smooth="yes"/>
      <point x="207" y="473"/>
      <point x="127" y="510"/>
      <point x="32" y="540" type="curve"/>
      <point x="19" y="559"/>
      <point x="13" y="585"/>
      <point x="13" y="609" type="curve" smooth="yes"/>
      <point x="13" y="619"/>
      <point x="14" y="628"/>
    </contour>
  </outline>
</glyph>
<glyph name="bracketright" format="2">
  <advance width="310"/>
  <unicode hex="005D"/>
  <outline>
    <contour>
      <point x="231.348" y="592.61" type="curve"/>
      <point x="231.348" y="-215.691" type="line"/>
      <point x="202.877" y="-213.744"/>
      <point x="149.475" y="-211.798"/>
      <point x="85.4629" y="-211.798" type="curve" smooth="yes"/>
      <point x="27.1025" y="-211.798" type="line"/>
      <point x="27.1025" y="-179.799" type="line"/>
      <point x="150.085" y="-176.149" type="line"/>
      <point x="150.085" y="553.068" type="line"/>
      <point x="27.1025" y="556.719" type="line"/>
      <point x="27.1025" y="588.718" type="line"/>
      <point x="85.4629" y="588.718" type="line" smooth="yes"/>
      <point x="149.475" y="588.718"/>
      <point x="202.884" y="590.664"/>
    </contour>
  </outline>
</glyph>
<glyph name="asciicircum" format="2">
  <advance width="395"/>
  <unicode hex="005E"/>
  <outline>
    <contour>
      <point x="168.035" y="588.718" type="line"/>
      <point x="226.853" y="588.718" type="line"/>
      <point x="365.953" y="349.386" type="line"/>
      <point x="303.244" y="349.386" type="line"/>
      <point x="197.439" y="536.665" type="line"/>
      <point x="91.6357" y="349.386" type="line"/>
      <point x="28.9336" y="349.386" type="line"/>
    </contour>
  </outline>
</glyph>
<glyph name="underscore" format="2">
  <advance width="781"/>
  <unicode hex="005F"/>
  <outline>
    <contour>
      <point x="0.0078125" y="-142.42" type="line"/>
      <point x="780.815" y="-142.42" type="line"/>
      <point x="780.815" y="-204.035" type="line"/>
      <point x="0.0078125" y="-204.035" type="line"/>
    </contour>
  </outline>
</glyph>
<glyph name="grave" format="2">
  <advance width="309"/>
  <unicode hex="0060"/>
  <outline>
    <contour>
      <point x="216.619" y="461.852" type="line"/>
      <point x="64.8945" y="616.199" type="line" smooth="yes"/>
      <point x="64.3432" y="617.613"/>
      <point x="64.0803" y="618.954"/>
      <point x="64.0803" y="620.224" type="curve" smooth="yes"/>
      <point x="64.0803" y="632.584"/>
      <point x="88.9671" y="638.235"/>
      <point x="115.325" y="638.235" type="curve" smooth="yes"/>
      <point x="142.37" y="638.235"/>
      <point x="170.964" y="632.286"/>
      <point x="175.812" y="621.531" type="curve" smooth="yes"/>
      <point x="247.761" y="461.852" type="line"/>
    </contour>
  </outline>
</glyph>
<glyph name="a" format="2">
  <advance width="815"/>
  <unicode hex="0061"/>
  <outline>
    <contour>
      <point x="499.492" y="547.458" type="curve" smooth="yes"/>
      <point x="499.492" y="518.062"/>
      <point x="475.661" y="494.231"/>
      <point x="446.265" y="494.231" type="curve" smooth="yes"/>
      <point x="416.869" y="494.231"/>
      <point x="393.038" y="518.062"/>
      <point x="393.038" y="547.458" type="curve" smooth="yes"/>
      <point x="393.038" y="576.854"/>
      <point x="416.869" y="600.685"/>
      <point x="446.265" y="600.685" type="curve" smooth="yes"/>
      <point x="475.661" y="600.685"/>
      <point x="499.492" y="576.854"/>
    </contour>
    <contour>
      <point x="548.266" y="15.4379" type="line"/>
      <point x="497.755" y="-3.78247"/>
      <point x="448.781" y="-21.2556"/>
      <point x="392.848" y="-21.2556" type="curve" smooth="yes"/>
      <point x="296.681" y="-21.2556"/>
      <point x="237.954" y="35.1661"/>
      <point x="237.954" y="136.585" type="curve" smooth="yes"/>
      <point x="237.954" y="366.661" type="line"/>
      <point x="32.6191" y="366.661" type="line" smooth="yes"/>
      <point x="18.8496" y="366.661"/>
      <point x="16.5498" y="370.601"/>
      <point x="25.7949" y="379.229" type="curve" smooth="yes"/>
      <point x="52.2666" y="403.934"/>
      <point x="99.0605" y="443.181"/>
      <point x="131.007" y="468.166" type="curve"/>
      <point x="186.136" y="402.553" type="line"/>
      <point x="677.66" y="402.553" type="line" smooth="yes"/>
      <point x="701.104" y="402.553"/>
      <point x="768.674" y="407.662"/>
      <point x="784.731" y="408.878" type="curve"/>
      <point x="766.457" y="355.955" type="line"/>
      <point x="746.156" y="361.46"/>
      <point x="698.257" y="366.66"/>
      <point x="677.174" y="366.66" type="curve" smooth="yes"/>
      <point x="622.63" y="366.66" type="line"/>
      <point x="622.63" y="55.2939" type="line"/>
      <point x="656.472" y="9.52148" type="line"/>
      <point x="630.872" y="-3.10352"/>
      <point x="592.397" y="-13.958"/>
      <point x="559.096" y="-19.5156" type="curve"/>
    </contour>
    <contour>
      <point x="541.368" y="62.6754" type="curve"/>
      <point x="541.368" y="366.66" type="line"/>
      <point x="319.215" y="366.661" type="line"/>
      <point x="319.215" y="160.14" type="line" smooth="yes"/>
      <point x="319.215" y="77.667"/>
      <point x="357.219" y="23.9941"/>
      <point x="440.642" y="23.9941" type="curve" smooth="yes"/>
      <point x="473.682" y="23.9941"/>
      <point x="498.833" y="27.2689"/>
    </contour>
  </outline>
</glyph>
<glyph name="b" format="2">
  <advance width="548"/>
  <unicode hex="0062"/>
  <outline>
    <contour>
      <point x="475.848" y="236.792" type="curve"/>
      <point x="457.569" y="183.869" type="line"/>
      <point x="437.267" y="189.374"/>
      <point x="389.368" y="194.574"/>
      <point x="368.286" y="194.574" type="curve" smooth="yes"/>
      <point x="135.582" y="194.574" type="line"/>
      <point x="135.582" y="35.8926" type="line"/>
      <point x="409.374" y="35.8926" type="line" smooth="yes"/>
      <point x="432.817" y="35.8926"/>
      <point x="500.392" y="41.002"/>
      <point x="516.449" y="42.2178" type="curve"/>
      <point x="498.171" y="-10.7051" type="line"/>
      <point x="477.868" y="-5.2002"/>
      <point x="429.971" y="0"/>
      <point x="408.888" y="0" type="curve" smooth="yes"/>
      <point x="135.582" y="-9.75608e-15" type="line"/>
      <point x="135.582" y="-33.8506" type="line"/>
      <point x="113.848" y="-45.583"/>
      <point x="81.4062" y="-57.1299"/>
      <point x="54.3203" y="-62.8877" type="curve"/>
      <point x="54.3203" y="355.891" type="line"/>
      <point x="12.5928" y="400.651" type="line"/>
      <point x="35.5771" y="413.585"/>
      <point x="86.127" y="438.504"/>
      <point x="113.322" y="448.458" type="curve"/>
      <point x="141.082" y="402.553" type="line"/>
      <point x="401.953" y="402.553" type="line" smooth="yes"/>
      <point x="425.396" y="402.553"/>
      <point x="492.97" y="407.662"/>
      <point x="509.028" y="408.879" type="curve"/>
      <point x="490.749" y="355.955" type="line"/>
      <point x="470.448" y="361.461"/>
      <point x="422.55" y="366.66"/>
      <point x="401.467" y="366.66" type="curve" smooth="yes"/>
      <point x="135.582" y="366.66" type="line"/>
      <point x="135.582" y="230.466" type="line"/>
      <point x="368.772" y="230.466" type="line" smooth="yes"/>
      <point x="392.216" y="230.466"/>
      <point x="459.789" y="235.575"/>
    </contour>
  </outline>
</glyph>
<glyph name="e" format="2">
  <advance width="599"/>
  <unicode hex="0065"/>
  <outline>
    <contour>
      <point x="170.146" y="468.166" type="curve"/>
      <point x="225.274" y="402.553" type="line"/>
      <point x="268.017" y="402.553" type="line"/>
      <point x="304.359" y="415.452"/>
      <point x="334.366" y="424.414"/>
      <point x="370.605" y="432.688" type="curve"/>
      <point x="368.541" y="415.484"/>
      <point x="366.477" y="369.188"/>
      <point x="366.477" y="331.712" type="curve" smooth="yes"/>
      <point x="366.477" y="191.535" type="line"/>
      <point x="467.358" y="191.535" type="line" smooth="yes"/>
      <point x="490.803" y="191.535"/>
      <point x="558.376" y="196.645"/>
      <point x="574.434" y="197.861" type="curve"/>
      <point x="556.155" y="144.938" type="line"/>
      <point x="535.853" y="150.443"/>
      <point x="487.955" y="155.644"/>
      <point x="466.872" y="155.644" type="curve" smooth="yes"/>
      <point x="366.477" y="155.644" type="line"/>
      <point x="366.477" y="-204.017" type="line"/>
      <point x="344.742" y="-215.749"/>
      <point x="312.303" y="-227.296"/>
      <point x="285.216" y="-233.054" type="curve"/>
      <point x="285.216" y="155.644" type="line"/>
      <point x="48.3965" y="155.644" type="line" smooth="yes"/>
      <point x="34.627" y="155.644"/>
      <point x="32.3271" y="159.583"/>
      <point x="41.5723" y="168.212" type="curve" smooth="yes"/>
      <point x="68.043" y="192.917"/>
      <point x="114.839" y="232.163"/>
      <point x="146.784" y="257.148" type="curve"/>
      <point x="201.913" y="191.535" type="line"/>
      <point x="285.216" y="191.535" type="line"/>
      <point x="285.216" y="366.66" type="line"/>
      <point x="71.7578" y="366.66" type="line" smooth="yes"/>
      <point x="57.9883" y="366.66"/>
      <point x="55.6885" y="370.601"/>
      <point x="64.9336" y="379.229" type="curve" smooth="yes"/>
      <point x="91.4043" y="403.934"/>
      <point x="138.2" y="443.181"/>
    </contour>
  </outline>
</glyph>
<glyph name="f" format="2">
  <advance width="530"/>
  <unicode hex="0066"/>
  <outline>
    <contour>
      <point x="301.585" y="370.873" type="curve" smooth="yes"/>
      <point x="241.453" y="370.873"/>
      <point x="159.646" y="329.225"/>
      <point x="135.58" y="305.354" type="curve"/>
      <point x="135.58" y="37.9395" type="line"/>
      <point x="266.974" y="42.6387"/>
      <point x="417.396" y="131.451"/>
      <point x="417.396" y="272.39" type="curve" smooth="yes"/>
      <point x="417.396" y="351.904"/>
      <point x="364.359" y="370.873"/>
    </contour>
    <contour>
      <point x="135.58" y="615.81" type="curve"/>
      <point x="135.58" y="358.646" type="line"/>
      <point x="221.342" y="388.108"/>
      <point x="287.282" y="406.297"/>
      <point x="313.268" y="412.764" type="curve"/>
      <point x="322.612" y="413.361"/>
      <point x="331.672" y="413.663"/>
      <point x="340.433" y="413.663" type="curve" smooth="yes"/>
      <point x="440.529" y="413.663"/>
      <point x="501.581" y="374.348"/>
      <point x="501.581" y="288.935" type="curve" smooth="yes"/>
      <point x="501.581" y="157.543"/>
      <point x="387.308" y="77.0381"/>
      <point x="290.94" y="39.0449" type="curve" smooth="yes"/>
      <point x="217.884" y="10.2422"/>
      <point x="117.291" y="-13.0938"/>
      <point x="54.3193" y="-20.79" type="curve"/>
      <point x="54.3193" y="548.572" type="line"/>
      <point x="18.3057" y="588.875" type="line"/>
      <point x="49.4814" y="598.605"/>
      <point x="102.512" y="611.293"/>
    </contour>
  </outline>
</glyph>
<glyph name="h" format="2">
  <advance width="530"/>
  <unicode hex="0068"/>
  <outline>
    <contour>
      <point x="301.585" y="370.873" type="curve" smooth="yes"/>
      <point x="241.452" y="370.873"/>
      <point x="159.646" y="329.225"/>
      <point x="135.58" y="305.354" type="curve"/>
      <point x="135.58" y="37.9395" type="line"/>
      <point x="266.974" y="42.6387"/>
      <point x="417.396" y="131.45"/>
      <point x="417.396" y="272.39" type="curve" smooth="yes"/>
      <point x="417.396" y="351.904"/>
      <point x="364.359" y="370.873"/>
    </contour>
    <contour>
      <point x="135.58" y="615.81" type="curve"/>
      <point x="135.58" y="358.646" type="line"/>
      <point x="221.341" y="388.108"/>
      <point x="287.282" y="406.297"/>
      <point x="313.268" y="412.764" type="curve"/>
      <point x="322.612" y="413.361"/>
      <point x="331.672" y="413.663"/>
      <point x="340.433" y="413.663" type="curve" smooth="yes"/>
      <point x="440.529" y="413.663"/>
      <point x="501.581" y="374.348"/>
      <point x="501.581" y="288.935" type="curve" smooth="yes"/>
      <point x="501.581" y="157.543"/>
      <point x="387.307" y="77.0381"/>
      <point x="290.94" y="39.0449" type="curve" smooth="yes"/>
      <point x="217.884" y="10.2422"/>
      <point x="117.29" y="-13.0938"/>
      <point x="54.3193" y="-20.79" type="curve"/>
      <point x="54.3193" y="548.572" type="line"/>
      <point x="18.3047" y="588.875" type="line"/>
      <point x="49.4814" y="598.605"/>
      <point x="102.512" y="611.293"/>
    </contour>
    <contour>
      <point x="305.504" y="-165.175" type="curve" smooth="yes"/>
      <point x="305.504" y="-194.571"/>
      <point x="281.673" y="-218.401"/>
      <point x="252.277" y="-218.401" type="curve" smooth="yes"/>
      <point x="222.881" y="-218.401"/>
      <point x="199.051" y="-194.571"/>
      <point x="199.051" y="-165.175" type="curve" smooth="yes"/>
      <point x="199.051" y="-135.779"/>
      <point x="222.881" y="-111.948"/>
      <point x="252.277" y="-111.948" type="curve" smooth="yes"/>
      <point x="281.673" y="-111.948"/>
      <point x="305.504" y="-135.779"/>
    </contour>
  </outline>
</glyph>
<glyph name="j" format="2">
  <advance width="599"/>
  <unicode hex="006A"/>
  <outline>
    <contour>
      <point x="146.788" y="468.166" type="curve"/>
      <point x="201.916" y="402.553" type="line"/>
      <point x="467.362" y="402.553" type="line" smooth="yes"/>
      <point x="490.806" y="402.553"/>
      <point x="558.379" y="407.662"/>
      <point x="574.438" y="408.879" type="curve"/>
      <point x="556.159" y="355.955" type="line"/>
      <point x="535.856" y="361.461"/>
      <point x="487.959" y="366.66"/>
      <point x="466.876" y="366.66" type="curve" smooth="yes"/>
      <point x="366.477" y="366.66" type="line"/>
      <point x="366.477" y="-204.018" type="line"/>
      <point x="344.743" y="-215.751"/>
      <point x="312.302" y="-227.297"/>
      <point x="285.215" y="-233.055" type="curve"/>
      <point x="285.215" y="366.66" type="line"/>
      <point x="48.3994" y="366.66" type="line" smooth="yes"/>
      <point x="34.6299" y="366.66"/>
      <point x="32.3301" y="370.601"/>
      <point x="41.5752" y="379.229" type="curve" smooth="yes"/>
      <point x="68.0469" y="403.934"/>
      <point x="114.842" y="443.181"/>
    </contour>
  </outline>
</glyph>
<glyph name="m" format="2">
  <advance width="190"/>
  <unicode hex="006D"/>
  <outline>
    <contour>
      <point x="153.036" y="-165.175" type="curve" smooth="yes"/>
      <point x="153.036" y="-194.571"/>
      <point x="129.205" y="-218.401"/>
      <point x="99.8096" y="-218.401" type="curve" smooth="yes"/>
      <point x="70.4131" y="-218.401"/>
      <point x="46.582" y="-194.571"/>
      <point x="46.582" y="-165.175" type="curve" smooth="yes"/>
      <point x="46.582" y="-135.779"/>
      <point x="70.4131" y="-111.948"/>
      <point x="99.8096" y="-111.948" type="curve" smooth="yes"/>
      <point x="129.205" y="-111.948"/>
      <point x="153.036" y="-135.779"/>
    </contour>
    <contour>
      <point x="135.58" y="432.689" type="curve"/>
      <point x="135.58" y="8.24805" type="line"/>
      <point x="113.848" y="-3.48535"/>
      <point x="81.4053" y="-15.0312"/>
      <point x="54.3174" y="-20.7891" type="curve"/>
      <point x="54.3174" y="365.452" type="line"/>
      <point x="18.3057" y="405.754" type="line"/>
      <point x="49.4844" y="415.485"/>
      <point x="102.512" y="428.173"/>
    </contour>
  </outline>
</glyph>
<glyph name="o" format="2">
  <advance width="463"/>
  <unicode hex="006F"/>
  <outline>
    <contour>
      <point x="237.75" y="218.158" type="curve" smooth="yes"/>
      <point x="237.75" y="188.762"/>
      <point x="213.919" y="164.932"/>
      <point x="184.522" y="164.932" type="curve" smooth="yes"/>
      <point x="155.127" y="164.932"/>
      <point x="131.296" y="188.762"/>
      <point x="131.296" y="218.158" type="curve" smooth="yes"/>
      <point x="131.296" y="247.555"/>
      <point x="155.127" y="271.385"/>
      <point x="184.522" y="271.385" type="curve" smooth="yes"/>
      <point x="213.919" y="271.385"/>
      <point x="237.75" y="247.555"/>
    </contour>
    <contour>
      <point x="125.411" y="468.166" type="curve"/>
      <point x="180.539" y="402.553" type="line"/>
      <point x="310.497" y="402.553" type="line"/>
      <point x="346.837" y="415.452"/>
      <point x="376.847" y="424.414"/>
      <point x="413.083" y="432.688" type="curve"/>
      <point x="411.02" y="415.483"/>
      <point x="408.955" y="369.188"/>
      <point x="408.955" y="331.711" type="curve" smooth="yes"/>
      <point x="408.955" y="8.24414" type="line"/>
      <point x="387.221" y="-3.48926"/>
      <point x="354.78" y="-15.0352"/>
      <point x="327.693" y="-20.793" type="curve"/>
      <point x="327.693" y="366.66" type="line"/>
      <point x="27.0225" y="366.66" type="line" smooth="yes"/>
      <point x="13.2529" y="366.66"/>
      <point x="10.9531" y="370.601"/>
      <point x="20.1982" y="379.229" type="curve" smooth="yes"/>
      <point x="46.6689" y="403.934"/>
      <point x="93.4648" y="443.181"/>
    </contour>
  </outline>
</glyph>
<glyph name="w" format="2">
  <advance width="677"/>
  <unicode hex="0077"/>
  <outline>
    <contour>
      <point x="541.375" y="12.833" type="line"/>
      <point x="500.101" y="-2.61831"/>
      <point x="450.071" y="-21.2556"/>
      <point x="392.859" y="-21.2556" type="curve" smooth="yes"/>
      <point x="296.692" y="-21.2556"/>
      <point x="237.969" y="35.166"/>
      <point x="237.969" y="136.584" type="curve" smooth="yes"/>
      <point x="237.969" y="366.66" type="line"/>
      <point x="32.627" y="366.66" type="line" smooth="yes"/>
      <point x="18.8555" y="366.66"/>
      <point x="16.5605" y="370.601"/>
      <point x="25.8008" y="379.229" type="curve" smooth="yes"/>
      <point x="52.2773" y="403.934"/>
      <point x="99.0664" y="443.181"/>
      <point x="131.017" y="468.166" type="curve"/>
      <point x="186.141" y="402.553" type="line"/>
      <point x="524.175" y="402.552" type="line"/>
      <point x="560.518" y="415.451"/>
      <point x="590.526" y="424.413"/>
      <point x="626.765" y="432.688" type="curve"/>
      <point x="624.697" y="415.483"/>
      <point x="622.638" y="369.188"/>
      <point x="622.638" y="331.711" type="curve" smooth="yes"/>
      <point x="622.638" y="-204.019" type="line"/>
      <point x="600.898" y="-215.752"/>
      <point x="568.463" y="-227.298"/>
      <point x="541.375" y="-233.056" type="curve"/>
    </contour>
    <contour>
      <point x="319.224" y="366.66" type="line"/>
      <point x="319.224" y="160.14" type="line" smooth="yes"/>
      <point x="319.224" y="77.666"/>
      <point x="357.229" y="23.9941"/>
      <point x="440.654" y="23.9941" type="curve" smooth="yes"/>
      <point x="473.695" y="23.9941"/>
      <point x="498.843" y="27.2686"/>
      <point x="541.375" y="62.6699" type="curve"/>
      <point x="541.375" y="366.66" type="line"/>
    </contour>
  </outline>
</glyph>
<glyph name="x" format="2">
  <advance width="355"/>
  <unicode hex="0078"/>
  <outline>
    <contour>
      <point x="231.09" y="547.458" type="curve" smooth="yes"/>
      <point x="231.09" y="518.062"/>
      <point x="207.254" y="494.231"/>
      <point x="177.864" y="494.231" type="curve" smooth="yes"/>
      <point x="148.466" y="494.231"/>
      <point x="124.638" y="518.062"/>
      <point x="124.638" y="547.458" type="curve" smooth="yes"/>
      <point x="124.638" y="576.854"/>
      <point x="148.466" y="600.685"/>
      <point x="177.864" y="600.685" type="curve" smooth="yes"/>
      <point x="207.254" y="600.685"/>
      <point x="231.09" y="576.854"/>
    </contour>
    <contour>
      <point x="103.259" y="452.595" type="curve"/>
      <point x="145.303" y="402.553" type="line"/>
      <point x="202.236" y="402.557" type="line"/>
      <point x="238.579" y="415.456"/>
      <point x="268.587" y="424.418"/>
      <point x="304.826" y="432.692" type="curve"/>
      <point x="302.759" y="415.488"/>
      <point x="300.691" y="369.192"/>
      <point x="300.691" y="331.716" type="curve" smooth="yes"/>
      <point x="300.691" y="-133.179" type="line" smooth="yes"/>
      <point x="300.691" y="-192.21"/>
      <point x="286.803" y="-215.246"/>
      <point x="188.104" y="-225.838" type="curve"/>
      <point x="187.965" y="-225.332"/>
      <point x="187.827" y="-224.83"/>
      <point x="187.69" y="-224.333" type="curve" smooth="yes"/>
      <point x="173.233" y="-171.898"/>
      <point x="172.434" y="-169.002"/>
      <point x="42.8232" y="-153.298" type="curve"/>
      <point x="42.8232" y="-133.833" type="line"/>
      <point x="46.2851" y="-133.986"/>
      <point x="50.0364" y="-134.153"/>
      <point x="54.0182" y="-134.329" type="curve" smooth="yes"/>
      <point x="99.444" y="-136.346"/>
      <point x="174.878" y="-139.695"/>
      <point x="193.019" y="-139.695" type="curve" smooth="yes"/>
      <point x="212.463" y="-139.695"/>
      <point x="219.437" y="-134.008"/>
      <point x="219.437" y="-117.706" type="curve" smooth="yes"/>
      <point x="219.437" y="366.665" type="line"/>
      <point x="26.7974" y="366.661" type="line" smooth="yes"/>
      <point x="19.2705" y="366.661"/>
      <point x="15.5838" y="368.645"/>
      <point x="15.5838" y="371.854" type="curve" smooth="yes"/>
      <point x="15.5838" y="380.486"/>
      <point x="94.8229" y="445.801"/>
    </contour>
  </outline>
</glyph>
<glyph name="z" format="2">
  <advance width="355"/>
  <unicode hex="007A"/>
  <outline>
    <contour>
      <point x="42.8242" y="-133.832" type="line"/>
      <point x="110.514" y="-136.828"/>
      <point x="175.267" y="-139.694"/>
      <point x="193.019" y="-139.694" type="curve" smooth="yes"/>
      <point x="212.463" y="-139.694"/>
      <point x="219.437" y="-134.007"/>
      <point x="219.437" y="-117.706" type="curve" smooth="yes"/>
      <point x="219.437" y="366.665" type="line"/>
      <point x="26.8008" y="366.661" type="line" smooth="yes"/>
      <point x="14.5078" y="366.661"/>
      <point x="12.4551" y="371.948"/>
      <point x="19.9736" y="379.229" type="curve" smooth="yes"/>
      <point x="45.6123" y="404.052"/>
      <point x="75.3262" y="430.101"/>
      <point x="103.26" y="452.595" type="curve"/>
      <point x="145.303" y="402.553" type="line"/>
      <point x="202.237" y="402.557" type="line"/>
      <point x="238.579" y="415.456"/>
      <point x="268.587" y="424.419"/>
      <point x="304.826" y="432.693" type="curve"/>
      <point x="302.76" y="415.488"/>
      <point x="300.692" y="369.192"/>
      <point x="300.692" y="331.716" type="curve" smooth="yes"/>
      <point x="300.692" y="-133.179" type="line" smooth="yes"/>
      <point x="300.692" y="-192.21"/>
      <point x="286.803" y="-215.246"/>
      <point x="188.104" y="-225.837" type="curve"/>
      <point x="173.078" y="-171.379"/>
      <point x="172.422" y="-169.001"/>
      <point x="42.8242" y="-153.297" type="curve"/>
    </contour>
  </outline>
</glyph>
<glyph name="bar" format="2">
  <advance width="213"/>
  <unicode hex="007C"/>
  <outline>
    <contour>
      <point x="79.1064" y="588.718" type="line"/>
      <point x="133.774" y="588.718" type="line"/>
      <point x="133.774" y="-211.798" type="line"/>
      <point x="79.1064" y="-211.798" type="line"/>
    </contour>
  </outline>
</glyph>
<glyph name="braceright" format="2">
  <advance width="248"/>
  <unicode hex="007D"/>
  <outline>
    <contour>
      <point x="86.7033" y="-78.9541" type="curve" smooth="yes"/>
      <point x="86.7033" y="-59.6273"/>
      <point x="85.7665" y="-33.3307"/>
      <point x="84.7922" y="-5.98065" type="curve" smooth="yes"/>
      <point x="83.7365" y="23.6519"/>
      <point x="82.6368" y="54.5209"/>
      <point x="82.6368" y="79.1015" type="curve" smooth="yes"/>
      <point x="82.6368" y="146.363"/>
      <point x="90.7788" y="169.743"/>
      <point x="124.122" y="187.456" type="curve"/>
      <point x="90.7787" y="205.169"/>
      <point x="82.6368" y="228.55"/>
      <point x="82.6368" y="295.81" type="curve" smooth="yes"/>
      <point x="82.6368" y="320.391"/>
      <point x="83.7365" y="351.26"/>
      <point x="84.7921" y="380.892" type="curve" smooth="yes"/>
      <point x="85.7665" y="408.242"/>
      <point x="86.7033" y="434.539"/>
      <point x="86.7033" y="453.866" type="curve" smooth="yes"/>
      <point x="86.7033" y="520.759"/>
      <point x="76.905" y="551.485"/>
      <point x="27.1016" y="560.312" type="curve"/>
      <point x="27.1016" y="588.718" type="line"/>
      <point x="147.75" y="588.718"/>
      <point x="170.794" y="555.875"/>
      <point x="170.794" y="430.492" type="curve" smooth="yes"/>
      <point x="170.794" y="389.715"/>
      <point x="168.855" y="352.503"/>
      <point x="167.289" y="322.455" type="curve" smooth="yes"/>
      <point x="166.229" y="302.111"/>
      <point x="165.34" y="285.051"/>
      <point x="165.34" y="272.393" type="curve" smooth="yes"/>
      <point x="165.34" y="227.439"/>
      <point x="174.461" y="206.66"/>
      <point x="217.016" y="199.135" type="curve"/>
      <point x="217.016" y="175.777" type="line"/>
      <point x="174.461" y="168.252"/>
      <point x="165.34" y="147.473"/>
      <point x="165.34" y="102.519" type="curve" smooth="yes"/>
      <point x="165.34" y="89.8605"/>
      <point x="166.229" y="72.8011"/>
      <point x="167.289" y="52.4572" type="curve" smooth="yes"/>
      <point x="168.855" y="22.4118"/>
      <point x="170.794" y="-14.7975"/>
      <point x="170.794" y="-55.5735" type="curve" smooth="yes"/>
      <point x="170.794" y="-180.973"/>
      <point x="147.745" y="-213.806"/>
      <point x="27.1016" y="-213.806" type="curve"/>
      <point x="27.1016" y="-185.399" type="line"/>
      <point x="76.905" y="-176.573"/>
      <point x="86.7033" y="-145.847"/>
    </contour>
  </outline>
</glyph>
<glyph name="asciitilde" format="2">
  <advance width="685"/>
  <unicode hex="007E"/>
  <outline>
    <contour>
      <point x="456.479" y="211.026" type="curve" smooth="yes"/>
      <point x="400.581" y="211.026"/>
      <point x="356.028" y="232.246"/>
      <point x="312.851" y="252.81" type="curve" smooth="yes"/>
      <point x="272.263" y="272.141"/>
      <point x="232.892" y="290.893"/>
      <point x="186.456" y="290.893" type="curve" smooth="yes"/>
      <point x="143.471" y="290.893"/>
      <point x="101.641" y="267.478"/>
      <point x="70.3672" y="225.378" type="curve"/>
      <point x="47.4805" y="236.627" type="line"/>
      <point x="79.0186" y="305.137"/>
      <point x="144.854" y="361.597"/>
      <point x="228.096" y="361.597" type="curve" smooth="yes"/>
      <point x="282.896" y="361.597"/>
      <point x="326.763" y="340.69"/>
      <point x="369.61" y="320.271" type="curve" smooth="yes"/>
      <point x="410.506" y="300.781"/>
      <point x="450.472" y="281.734"/>
      <point x="498.125" y="281.734" type="curve" smooth="yes"/>
      <point x="541.11" y="281.734"/>
      <point x="582.94" y="305.15"/>
      <point x="614.214" y="347.245" type="curve"/>
      <point x="637.101" y="335.996" type="line"/>
      <point x="605.562" y="267.483"/>
      <point x="539.72" y="211.026"/>
    </contour>
  </outline>
</glyph>
<glyph name="emdash" format="2">
  <advance width="780"/>
  <unicode hex="2014"/>
  <outline>
    <contour>
      <point x="0" y="208" type="line"/>
      <point x="781" y="208" type="line"/>
      <point x="781" y="146" type="line"/>
      <point x="0" y="146" type="line"/>
    </contour>
  </outline>
</glyph>
<glyph name="quoteright" format="2">
  <advance width="172"/>
  <unicode hex="2019"/>
  <outline>
    <contour>
      <point x="82" y="674" type="curve" smooth="yes"/>
      <point x="132" y="674"/>
      <point x="157" y="640"/>
      <point x="157" y="586" type="curve" smooth="yes"/>
      <point x="157" y="528"/>
      <point x="117" y="473"/>
      <point x="48" y="438" type="curve"/>
      <point x="26" y="464" type="line"/>
      <point x="79" y="495"/>
      <point x="99" y="527"/>
      <point x="99" y="553" type="curve" smooth="yes"/>
      <point x="99" y="564"/>
      <point x="95" y="568"/>
      <point x="85" y="570" type="curve" smooth="yes"/>
      <point x="46" y="577"/>
      <point x="28" y="596"/>
      <point x="28" y="625" type="curve" smooth="yes"/>
      <point x="28" y="648"/>
      <point x="50" y="674"/>
    </contour>
  </outline>
</glyph>
<glyph name="quotedblleft" format="2">
  <advance width="315"/>
  <unicode hex="201C"/>
  <outline>
    <contour>
      <point x="91" y="438" type="curve" smooth="yes"/>
      <point x="41" y="438"/>
      <point x="16" y="472"/>
      <point x="16" y="526" type="curve" smooth="yes"/>
      <point x="16" y="584"/>
      <point x="57" y="639"/>
      <point x="126" y="674" type="curve"/>
      <point x="147" y="648" type="line"/>
      <point x="94" y="617"/>
      <point x="74" y="584"/>
      <point x="74" y="558" type="curve" smooth="yes"/>
      <point x="74" y="547"/>
      <point x="79" y="544"/>
      <point x="89" y="542" type="curve" smooth="yes"/>
      <point x="128" y="535"/>
      <point x="145" y="515"/>
      <point x="145" y="486" type="curve" smooth="yes"/>
      <point x="145" y="463"/>
      <point x="123" y="438"/>
    </contour>
    <contour>
      <point x="234" y="438" type="curve" smooth="yes"/>
      <point x="184" y="438"/>
      <point x="158" y="472"/>
      <point x="158" y="526" type="curve" smooth="yes"/>
      <point x="158" y="584"/>
      <point x="199" y="639"/>
      <point x="268" y="674" type="curve"/>
      <point x="290" y="648" type="line"/>
      <point x="237" y="617"/>
      <point x="216" y="584"/>
      <point x="216" y="558" type="curve" smooth="yes"/>
      <point x="216" y="547"/>
      <point x="221" y="544"/>
      <point x="231" y="542" type="curve" smooth="yes"/>
      <point x="270" y="535"/>
      <point x="288" y="515"/>
      <point x="288" y="486" type="curve" smooth="yes"/>
      <point x="288" y="463"/>
      <point x="266" y="438"/>
    </contour>
  </outline>
</glyph>
<glyph name="a.init" format="2">
  <advance width="540"/>
  <unicode hex="E000"/>
  <outline>
    <contour>
      <point x="411.402" y="15.0388" type="line"/>
      <point x="407.961" y="13.7419"/>
      <point x="305.93" y="-22.1366"/>
      <point x="271.589" y="-22.1366" type="curve" smooth="yes"/>
      <point x="142.454" y="-22.1366"/>
      <point x="35.7891" y="52.8819"/>
      <point x="35.7891" y="199.986" type="curve" smooth="yes"/>
      <point x="35.7891" y="303.393"/>
      <point x="91.1465" y="344.92"/>
      <point x="135.51" y="370.598" type="curve" smooth="yes"/>
      <point x="150.002" y="376.385"/>
      <point x="240.716" y="403.555"/>
      <point x="260.022" y="406.953" type="curve" smooth="yes"/>
      <point x="274.323" y="409.47"/>
      <point x="289.847" y="410.835"/>
      <point x="306.002" y="410.835" type="curve" smooth="yes"/>
      <point x="337.858" y="410.835"/>
      <point x="372.166" y="405.528"/>
      <point x="404.381" y="393.287" type="curve"/>
      <point x="404.381" y="548.571" type="line"/>
      <point x="368.367" y="588.874" type="line"/>
      <point x="399.544" y="598.604"/>
      <point x="452.573" y="611.292"/>
      <point x="485.642" y="615.809" type="curve"/>
      <point x="485.642" y="402.552" type="line"/>
      <point x="547.75" y="402.553" type="line"/>
      <point x="547.75" y="366.661" type="line"/>
      <point x="485.642" y="366.661" type="line"/>
      <point x="485.642" y="55.2949" type="line"/>
      <point x="519.485" y="9.52246" type="line"/>
      <point x="493.885" y="-3.10352"/>
      <point x="455.412" y="-13.958"/>
      <point x="422.109" y="-19.5156" type="curve"/>
    </contour>
    <contour>
      <point x="404.381" y="318.816" type="line"/>
      <point x="363.302" y="359.797"/>
      <point x="304.519" y="370.042"/>
      <point x="265.317" y="370.042" type="curve" smooth="yes"/>
      <point x="181.491" y="370.042"/>
      <point x="116.831" y="305.529"/>
      <point x="116.831" y="217.964" type="curve" smooth="yes"/>
      <point x="116.831" y="101.329"/>
      <point x="201.288" y="31.0713"/>
      <point x="298.512" y="31.0713" type="curve" smooth="yes"/>
      <point x="334.865" y="31.0713"/>
      <point x="373.776" y="42.4845"/>
      <point x="404.381" y="66.1784" type="curve"/>
    </contour>
  </outline>
</glyph>
<glyph name="b.init" format="2">
  <advance width="493"/>
  <unicode hex="E003"/>
  <outline>
    <contour>
      <point x="325.497" y="219.853" type="curve" smooth="yes"/>
      <point x="325.497" y="190.456"/>
      <point x="301.667" y="166.626"/>
      <point x="272.271" y="166.626" type="curve" smooth="yes"/>
      <point x="242.875" y="166.626"/>
      <point x="219.044" y="190.456"/>
      <point x="219.044" y="219.853" type="curve" smooth="yes"/>
      <point x="219.044" y="249.249"/>
      <point x="242.875" y="273.079"/>
      <point x="272.271" y="273.079" type="curve" smooth="yes"/>
      <point x="301.667" y="273.079"/>
      <point x="325.497" y="249.249"/>
    </contour>
    <contour>
      <point x="357.735" y="12.8516" type="line"/>
      <point x="316.739" y="-2.50861"/>
      <point x="266.586" y="-21.2555"/>
      <point x="209.217" y="-21.2555" type="curve" smooth="yes"/>
      <point x="113.049" y="-21.2555"/>
      <point x="54.3223" y="35.1669"/>
      <point x="54.3223" y="136.586" type="curve" smooth="yes"/>
      <point x="54.3223" y="353.826" type="line"/>
      <point x="12.5947" y="398.587" type="line"/>
      <point x="35.5791" y="411.521"/>
      <point x="86.1299" y="436.439"/>
      <point x="113.324" y="446.394" type="curve"/>
      <point x="139.834" y="402.553" type="line"/>
      <point x="501.104" y="402.553" type="line"/>
      <point x="501.104" y="366.66" type="line"/>
      <point x="501.104" y="366.66"/>
      <point x="338.651" y="366.661"/>
      <point x="230.348" y="366.661" type="curve" smooth="yes"/>
      <point x="176.197" y="366.661"/>
      <point x="135.583" y="366.66"/>
      <point x="135.583" y="366.66" type="curve" smooth="yes"/>
      <point x="135.583" y="160.141" type="line" smooth="yes"/>
      <point x="135.583" y="77.668"/>
      <point x="173.587" y="23.9941"/>
      <point x="257.01" y="23.9941" type="curve" smooth="yes"/>
      <point x="290.048" y="23.9941"/>
      <point x="325.423" y="39.1152"/>
      <point x="357.735" y="76.125" type="curve"/>
      <point x="388.172" y="84.4102"/>
      <point x="417.788" y="91.4639"/>
      <point x="446.793" y="97.5996" type="curve"/>
      <point x="444.911" y="84.4277"/>
      <point x="438.997" y="35.335"/>
      <point x="438.997" y="8.72266" type="curve" smooth="yes"/>
      <point x="438.997" y="-204.013" type="line"/>
      <point x="417.263" y="-215.746"/>
      <point x="384.822" y="-227.292"/>
      <point x="357.735" y="-233.05" type="curve"/>
    </contour>
  </outline>
</glyph>
<glyph name="b.medi" format="2">
  <advance width="445"/>
  <unicode hex="E004"/>
  <outline>
    <contour>
      <point x="276.473" y="547.458" type="curve" smooth="yes"/>
      <point x="276.473" y="518.062"/>
      <point x="252.643" y="494.231"/>
      <point x="223.246" y="494.231" type="curve" smooth="yes"/>
      <point x="193.851" y="494.231"/>
      <point x="170.02" y="518.062"/>
      <point x="170.02" y="547.458" type="curve" smooth="yes"/>
      <point x="170.02" y="576.854"/>
      <point x="193.851" y="600.685"/>
      <point x="223.246" y="600.685" type="curve" smooth="yes"/>
      <point x="252.643" y="600.685"/>
      <point x="276.473" y="576.854"/>
    </contour>
    <contour>
      <point x="390.521" y="366.659" type="line"/>
      <point x="390.521" y="151.108" type="line" smooth="yes"/>
      <point x="390.521" y="68.293"/>
      <point x="354.634" y="37.4766"/>
      <point x="316.304" y="19.1094" type="curve" smooth="yes"/>
      <point x="293.876" y="8.36219"/>
      <point x="237.03" y="-16.3253"/>
      <point x="188.219" y="-16.3253" type="curve" smooth="yes"/>
      <point x="123.218" y="-16.3253"/>
      <point x="54.3184" y="17.1702"/>
      <point x="54.3184" y="119.809" type="curve" smooth="yes"/>
      <point x="54.3184" y="366.66" type="line"/>
      <point x="-7.78613" y="366.66" type="line"/>
      <point x="-7.78613" y="402.553" type="line"/>
      <point x="37.1221" y="402.556" type="line"/>
      <point x="73.4639" y="415.455"/>
      <point x="103.474" y="424.418"/>
      <point x="139.711" y="432.692" type="curve"/>
      <point x="137.647" y="415.485"/>
      <point x="135.579" y="369.193"/>
      <point x="135.579" y="331.719" type="curve" smooth="yes"/>
      <point x="135.579" y="143.364" type="line" smooth="yes"/>
      <point x="135.579" y="60.8906"/>
      <point x="173.863" y="29.4873"/>
      <point x="227.024" y="29.4873" type="curve" smooth="yes"/>
      <point x="272.978" y="29.4873"/>
      <point x="309.26" y="58.1641"/>
      <point x="309.26" y="127.553" type="curve" smooth="yes"/>
      <point x="309.26" y="353.826" type="line"/>
      <point x="267.532" y="398.587" type="line"/>
      <point x="290.517" y="411.521"/>
      <point x="341.069" y="436.436"/>
      <point x="368.262" y="446.39" type="curve"/>
      <point x="394.773" y="402.551" type="line"/>
      <point x="452.629" y="402.551" type="line"/>
      <point x="452.629" y="366.659" type="line"/>
    </contour>
  </outline>
</glyph>
<glyph name="b.fina" format="2">
  <advance width="440"/>
  <unicode hex="E005"/>
  <outline>
    <contour>
      <point x="327.24" y="208.623" type="curve" smooth="yes"/>
      <point x="327.24" y="179.227"/>
      <point x="303.409" y="155.396"/>
      <point x="274.014" y="155.396" type="curve" smooth="yes"/>
      <point x="244.617" y="155.396"/>
      <point x="220.787" y="179.227"/>
      <point x="220.787" y="208.623" type="curve" smooth="yes"/>
      <point x="220.787" y="238.02"/>
      <point x="244.617" y="261.85"/>
      <point x="274.014" y="261.85" type="curve" smooth="yes"/>
      <point x="303.409" y="261.85"/>
      <point x="327.24" y="238.02"/>
    </contour>
    <contour>
      <point x="417.818" y="408.877" type="curve"/>
      <point x="399.544" y="355.953" type="line"/>
      <point x="367.939" y="364.422"/>
      <point x="334.192" y="372.723"/>
      <point x="278.333" y="372.723" type="curve" smooth="yes"/>
      <point x="165.208" y="372.723"/>
      <point x="109.656" y="322.516"/>
      <point x="109.656" y="229.211" type="curve" smooth="yes"/>
      <point x="109.656" y="101.842"/>
      <point x="210.321" y="23.549"/>
      <point x="330.838" y="23.549" type="curve" smooth="yes"/>
      <point x="351.472" y="23.549"/>
      <point x="372.688" y="25.8441"/>
      <point x="394.081" y="30.5811" type="curve"/>
      <point x="394.081" y="11.9951" type="line"/>
      <point x="309.606" y="-8.45801" type="line" smooth="yes"/>
      <point x="289.812" y="-13.2508"/>
      <point x="270.014" y="-15.5741"/>
      <point x="250.608" y="-15.5741" type="curve" smooth="yes"/>
      <point x="132.309" y="-15.5741"/>
      <point x="28.543" y="70.759"/>
      <point x="28.543" y="210.316" type="curve" smooth="yes"/>
      <point x="28.543" y="287.434"/>
      <point x="69.9873" y="343.457"/>
      <point x="134.747" y="362.357" type="curve" smooth="yes"/>
      <point x="139.475" y="363.737"/>
      <point x="143.543" y="364.875"/>
      <point x="150.201" y="366.659" type="curve"/>
      <point x="-7.78711" y="366.659" type="line"/>
      <point x="-7.78711" y="402.551" type="line"/>
      <point x="306.854" y="402.551" type="line" smooth="yes"/>
      <point x="330.299" y="402.551"/>
      <point x="401.762" y="407.66"/>
    </contour>
  </outline>
</glyph>
<glyph name="c.medi" format="2">
  <advance width="423"/>
  <unicode hex="E007"/>
  <outline>
    <contour>
      <point x="-7.78516" y="402.553" type="line"/>
      <point x="430.816" y="402.553" type="line"/>
      <point x="430.816" y="366.661" type="line"/>
      <point x="368.705" y="366.661" type="line"/>
      <point x="368.705" y="7.95898" type="line"/>
      <point x="346.973" y="-3.77441"/>
      <point x="314.53" y="-15.3213"/>
      <point x="287.443" y="-21.0781" type="curve"/>
      <point x="287.443" y="366.661" type="line"/>
      <point x="135.583" y="366.661" type="line"/>
      <point x="135.583" y="-204.018" type="line"/>
      <point x="113.849" y="-215.751"/>
      <point x="81.4082" y="-227.296"/>
      <point x="54.3213" y="-233.054" type="curve"/>
      <point x="54.3213" y="366.661" type="line"/>
      <point x="-7.78516" y="366.661" type="line"/>
    </contour>
  </outline>
</glyph>
<glyph name="d.init" format="2">
  <advance width="190"/>
  <unicode hex="E009"/>
  <outline>
    <contour>
      <point x="135.582" y="402.552" type="line"/>
      <point x="197.689" y="402.553" type="line"/>
      <point x="197.689" y="366.66" type="line"/>
      <point x="135.582" y="366.66" type="line"/>
      <point x="135.582" y="-204.018" type="line"/>
      <point x="113.848" y="-215.751"/>
      <point x="81.4072" y="-227.298"/>
      <point x="54.3203" y="-233.055" type="curve"/>
      <point x="54.3203" y="548.571" type="line"/>
      <point x="18.3076" y="588.874" type="line"/>
      <point x="49.4834" y="598.604"/>
      <point x="102.514" y="611.292"/>
      <point x="135.582" y="615.809" type="curve"/>
    </contour>
  </outline>
</glyph>
<glyph name="d.fina" format="2">
  <advance width="190"/>
  <unicode hex="E00B"/>
  <outline>
    <contour>
      <point x="135.583" y="615.809" type="curve"/>
      <point x="135.583" y="-204.018" type="line"/>
      <point x="113.849" y="-215.751"/>
      <point x="81.4082" y="-227.298"/>
      <point x="54.3213" y="-233.055" type="curve"/>
      <point x="54.3213" y="366.66" type="line"/>
      <point x="-7.78613" y="366.66" type="line"/>
      <point x="-7.78613" y="402.553" type="line"/>
      <point x="54.3213" y="402.552" type="line"/>
      <point x="54.3213" y="548.571" type="line"/>
      <point x="18.3086" y="588.874" type="line"/>
      <point x="49.4844" y="598.604"/>
      <point x="102.515" y="611.292"/>
    </contour>
  </outline>
</glyph>
<glyph name="e.init" format="2">
  <advance width="190"/>
  <unicode hex="E00C"/>
  <outline>
    <contour>
      <point x="135.582" y="366.66" type="line"/>
      <point x="135.582" y="-204.018" type="line"/>
      <point x="113.848" y="-215.751"/>
      <point x="81.4082" y="-227.296"/>
      <point x="54.3203" y="-233.054" type="curve"/>
      <point x="54.3203" y="353.826" type="line"/>
      <point x="12.5938" y="398.587" type="line"/>
      <point x="35.5781" y="411.521"/>
      <point x="86.1299" y="436.438"/>
      <point x="113.324" y="446.392" type="curve"/>
      <point x="139.832" y="402.552" type="line"/>
      <point x="197.689" y="402.552" type="line"/>
      <point x="197.689" y="366.66" type="line"/>
    </contour>
  </outline>
</glyph>
<glyph name="f.init" format="2">
  <advance width="675"/>
  <unicode hex="E00F"/>
  <outline>
    <contour>
      <point x="135.582" y="370.134" type="line"/>
      <point x="187.369" y="387.156"/>
      <point x="233.275" y="400.438"/>
      <point x="263.793" y="407.987" type="curve" smooth="yes"/>
      <point x="278.86" y="409.872"/>
      <point x="293.832" y="410.776"/>
      <point x="308.567" y="410.776" type="curve" smooth="yes"/>
      <point x="368.111" y="410.776"/>
      <point x="423.774" y="396.018"/>
      <point x="466.146" y="371.602" type="curve"/>
      <point x="466.146" y="353.201" type="line"/>
      <point x="381.342" y="313.43"/>
      <point x="318.839" y="238.334"/>
      <point x="318.839" y="154.752" type="curve" smooth="yes"/>
      <point x="318.839" y="66.9463"/>
      <point x="391.124" y="21.0762"/>
      <point x="447.232" y="21.0762" type="curve" smooth="yes"/>
      <point x="490.743" y="21.0762"/>
      <point x="538.882" y="58.1104"/>
      <point x="538.882" y="131.624" type="curve" smooth="yes"/>
      <point x="538.882" y="353.826" type="line"/>
      <point x="497.155" y="398.587" type="line"/>
      <point x="520.14" y="411.521"/>
      <point x="570.689" y="436.439"/>
      <point x="597.885" y="446.394" type="curve"/>
      <point x="624.392" y="402.553" type="line"/>
      <point x="682.251" y="402.553" type="line"/>
      <point x="682.251" y="366.661" type="line"/>
      <point x="620.144" y="366.66" type="line"/>
      <point x="620.144" y="150.538" type="line" smooth="yes"/>
      <point x="620.144" y="58.668"/>
      <point x="561.681" y="4.16016"/>
      <point x="506.567" y="-5.7041" type="curve" smooth="yes"/>
      <point x="494.899" y="-7.79304"/>
      <point x="431.529" y="-19.1224"/>
      <point x="403.675" y="-19.1224" type="curve" smooth="yes"/>
      <point x="331.554" y="-19.1224"/>
      <point x="237.962" y="29.29"/>
      <point x="237.962" y="136.428" type="curve" smooth="yes"/>
      <point x="237.962" y="229.877"/>
      <point x="289.622" y="301.572"/>
      <point x="380.119" y="349.096" type="curve"/>
      <point x="352.531" y="364.141"/>
      <point x="316.548" y="371.507"/>
      <point x="272.053" y="371.507" type="curve" smooth="yes"/>
      <point x="234.143" y="371.507"/>
      <point x="177.217" y="360.571"/>
      <point x="135.582" y="340.489" type="curve"/>
      <point x="135.582" y="-204.018" type="line"/>
      <point x="113.849" y="-215.751"/>
      <point x="81.4082" y="-227.297"/>
      <point x="54.3213" y="-233.055" type="curve"/>
      <point x="54.3213" y="365.453" type="line"/>
      <point x="18.3076" y="405.755" type="line"/>
      <point x="49.4844" y="415.485"/>
      <point x="102.514" y="428.173"/>
      <point x="135.582" y="432.689" type="curve"/>
    </contour>
  </outline>
</glyph>
<glyph name="f.medi" format="2">
  <advance width="190"/>
  <unicode hex="E010"/>
  <outline>
    <contour>
      <point x="-7.78516" y="402.553" type="line"/>
      <point x="197.691" y="402.553" type="line"/>
      <point x="197.691" y="366.661" type="line"/>
      <point x="135.583" y="366.661" type="line"/>
      <point x="135.583" y="-204.018" type="line"/>
      <point x="113.85" y="-215.751"/>
      <point x="81.4092" y="-227.297"/>
      <point x="54.3223" y="-233.055" type="curve"/>
      <point x="54.3223" y="366.661" type="line"/>
      <point x="-7.78516" y="366.661" type="line"/>
    </contour>
  </outline>
</glyph>
<glyph name="f.fina" format="2">
  <advance width="472"/>
  <unicode hex="E011"/>
  <outline>
    <contour>
      <point x="198.717" y="77.9629" type="line"/>
      <point x="198.858" y="77.9567"/>
      <point x="200.537" y="77.8581"/>
      <point x="203.389" y="77.6906" type="curve" smooth="yes"/>
      <point x="223.067" y="76.5352"/>
      <point x="298.576" y="72.1016"/>
      <point x="309.988" y="72.1016" type="curve" smooth="yes"/>
      <point x="329.43" y="72.1016"/>
      <point x="336.402" y="77.7852"/>
      <point x="336.402" y="94.0859" type="curve" smooth="yes"/>
      <point x="336.402" y="366.66" type="line"/>
      <point x="-7.78418" y="366.66" type="line"/>
      <point x="-7.78418" y="402.553" type="line"/>
      <point x="319.204" y="402.553" type="line"/>
      <point x="355.546" y="415.451"/>
      <point x="385.555" y="424.414"/>
      <point x="421.793" y="432.688" type="curve"/>
      <point x="419.729" y="415.484"/>
      <point x="417.664" y="369.188"/>
      <point x="417.664" y="331.712" type="curve" smooth="yes"/>
      <point x="417.664" y="78.6172" type="line" smooth="yes"/>
      <point x="417.664" y="19.5859"/>
      <point x="403.77" y="-3.4502"/>
      <point x="305.068" y="-14.042" type="curve"/>
      <point x="290.201" y="39.8447"/>
      <point x="269.815" y="49.8838"/>
      <point x="198.717" y="58.499" type="curve"/>
    </contour>
    <contour>
      <point x="135.583" y="304.373" type="curve"/>
      <point x="135.583" y="-204.018" type="line"/>
      <point x="113.849" y="-215.751"/>
      <point x="81.4082" y="-227.298"/>
      <point x="54.3213" y="-233.056" type="curve"/>
      <point x="54.3213" y="237.137" type="line"/>
      <point x="18.3086" y="277.438" type="line"/>
      <point x="49.4844" y="287.168"/>
      <point x="102.515" y="299.856"/>
    </contour>
  </outline>
</glyph>
<glyph name="g.init" format="2">
  <advance width="423"/>
  <unicode hex="E012"/>
  <outline>
    <contour>
      <point x="264.737" y="547.458" type="curve" smooth="yes"/>
      <point x="264.737" y="518.062"/>
      <point x="240.906" y="494.231"/>
      <point x="211.51" y="494.231" type="curve" smooth="yes"/>
      <point x="182.114" y="494.231"/>
      <point x="158.283" y="518.062"/>
      <point x="158.283" y="547.458" type="curve" smooth="yes"/>
      <point x="158.283" y="576.854"/>
      <point x="182.114" y="600.685"/>
      <point x="211.51" y="600.685" type="curve" smooth="yes"/>
      <point x="240.906" y="600.685"/>
      <point x="264.737" y="576.854"/>
    </contour>
    <contour>
      <point x="135.582" y="366.661" type="line"/>
      <point x="135.582" y="-204.018" type="line"/>
      <point x="113.848" y="-215.751"/>
      <point x="81.4082" y="-227.296"/>
      <point x="54.3203" y="-233.054" type="curve"/>
      <point x="54.3203" y="353.826" type="line"/>
      <point x="12.5928" y="398.587" type="line"/>
      <point x="35.5771" y="411.521"/>
      <point x="86.1289" y="436.438"/>
      <point x="113.324" y="446.392" type="curve"/>
      <point x="139.831" y="402.553" type="line"/>
      <point x="430.815" y="402.553" type="line"/>
      <point x="430.815" y="366.661" type="line"/>
      <point x="368.704" y="366.661" type="line"/>
      <point x="368.704" y="7.95898" type="line"/>
      <point x="346.972" y="-3.77441"/>
      <point x="314.529" y="-15.3213"/>
      <point x="287.442" y="-21.0781" type="curve"/>
      <point x="287.442" y="366.661" type="line"/>
    </contour>
  </outline>
</glyph>
<glyph name="g.medi" format="2">
  <advance width="424"/>
  <unicode hex="E013"/>
  <outline>
    <contour>
      <point x="264.737" y="547.458" type="curve" smooth="yes"/>
      <point x="264.737" y="518.062"/>
      <point x="240.906" y="494.231"/>
      <point x="211.511" y="494.231" type="curve" smooth="yes"/>
      <point x="182.114" y="494.231"/>
      <point x="158.284" y="518.062"/>
      <point x="158.284" y="547.458" type="curve" smooth="yes"/>
      <point x="158.284" y="576.854"/>
      <point x="182.114" y="600.685"/>
      <point x="211.511" y="600.685" type="curve" smooth="yes"/>
      <point x="240.906" y="600.685"/>
      <point x="264.737" y="576.854"/>
    </contour>
    <contour>
      <point x="-7.78516" y="402.553" type="line"/>
      <point x="430.816" y="402.553" type="line"/>
      <point x="430.816" y="366.661" type="line"/>
      <point x="368.704" y="366.661" type="line"/>
      <point x="368.704" y="7.95898" type="line"/>
      <point x="346.973" y="-3.77441"/>
      <point x="314.53" y="-15.3213"/>
      <point x="287.443" y="-21.0781" type="curve"/>
      <point x="287.443" y="366.661" type="line"/>
      <point x="135.583" y="366.661" type="line"/>
      <point x="135.583" y="-204.018" type="line"/>
      <point x="113.848" y="-215.751"/>
      <point x="81.4082" y="-227.296"/>
      <point x="54.3203" y="-233.054" type="curve"/>
      <point x="54.3203" y="366.661" type="line"/>
      <point x="-7.78516" y="366.661" type="line"/>
    </contour>
  </outline>
</glyph>
<glyph name="g.fina" format="2">
  <advance width="423"/>
  <unicode hex="E014"/>
  <outline>
    <contour>
      <point x="264.737" y="547.458" type="curve" smooth="yes"/>
      <point x="264.737" y="518.062"/>
      <point x="240.906" y="494.231"/>
      <point x="211.511" y="494.231" type="curve" smooth="yes"/>
      <point x="182.114" y="494.231"/>
      <point x="158.283" y="518.062"/>
      <point x="158.283" y="547.458" type="curve" smooth="yes"/>
      <point x="158.283" y="576.854"/>
      <point x="182.114" y="600.685"/>
      <point x="211.511" y="600.685" type="curve" smooth="yes"/>
      <point x="240.906" y="600.685"/>
      <point x="264.737" y="576.854"/>
    </contour>
    <contour>
      <point x="372.832" y="432.407" type="curve"/>
      <point x="370.769" y="415.203"/>
      <point x="368.704" y="368.907"/>
      <point x="368.704" y="331.431" type="curve" smooth="yes"/>
      <point x="368.704" y="7.95898" type="line"/>
      <point x="346.97" y="-3.77441"/>
      <point x="314.529" y="-15.3203"/>
      <point x="287.442" y="-21.0781" type="curve"/>
      <point x="287.442" y="366.372" type="line"/>
      <point x="135.582" y="366.521" type="line"/>
      <point x="135.582" y="-204.018" type="line"/>
      <point x="113.848" y="-215.751"/>
      <point x="81.4082" y="-227.296"/>
      <point x="54.3203" y="-233.054" type="curve"/>
      <point x="54.3203" y="366.6" type="line"/>
      <point x="-7.78613" y="366.661" type="line"/>
      <point x="-7.78613" y="402.553" type="line"/>
      <point x="270.243" y="402.271" type="line"/>
      <point x="306.585" y="415.17"/>
      <point x="336.595" y="424.133"/>
    </contour>
  </outline>
</glyph>
<glyph name="h.fina" format="2">
  <advance width="190"/>
  <unicode hex="E017"/>
  <outline>
    <contour>
      <point x="135.584" y="615.808" type="curve"/>
      <point x="135.584" y="7.95703" type="line"/>
      <point x="113.853" y="-3.77539"/>
      <point x="81.4092" y="-15.3223"/>
      <point x="54.3213" y="-21.0791" type="curve"/>
      <point x="54.3213" y="366.66" type="line"/>
      <point x="-7.78516" y="366.66" type="line"/>
      <point x="-7.78516" y="402.552" type="line"/>
      <point x="54.3213" y="402.551" type="line"/>
      <point x="54.3213" y="548.57" type="line"/>
      <point x="18.3105" y="588.872" type="line"/>
      <point x="49.4883" y="598.604"/>
      <point x="102.516" y="611.291"/>
    </contour>
  </outline>
</glyph>
<glyph name="i.fina" format="2">
  <advance width="320"/>
  <unicode hex="E01A"/>
  <outline>
    <contour>
      <point x="119.589" y="293.379" type="curve"/>
      <point x="119.589" y="9.12988" type="line"/>
      <point x="103.635" y="0.515625"/>
      <point x="79.8184" y="-7.95996"/>
      <point x="59.9336" y="-12.1865" type="curve"/>
      <point x="59.9336" y="244.021" type="line"/>
      <point x="33.498" y="273.606" type="line"/>
      <point x="56.3857" y="280.749"/>
      <point x="95.3125" y="290.063"/>
    </contour>
    <contour>
      <point x="7.78711" y="-133.832" type="line"/>
      <point x="75.5718" y="-136.832"/>
      <point x="140.241" y="-139.694"/>
      <point x="157.985" y="-139.694" type="curve" smooth="yes"/>
      <point x="177.427" y="-139.694"/>
      <point x="184.4" y="-134.009"/>
      <point x="184.4" y="-117.707" type="curve" smooth="yes"/>
      <point x="184.4" y="366.664" type="line"/>
      <point x="-7.78711" y="366.661" type="line"/>
      <point x="-7.78711" y="402.553" type="line"/>
      <point x="167.201" y="402.557" type="line"/>
      <point x="203.543" y="415.455"/>
      <point x="233.553" y="424.418"/>
      <point x="269.79" y="432.692" type="curve"/>
      <point x="267.726" y="415.488"/>
      <point x="265.662" y="369.192"/>
      <point x="265.662" y="331.716" type="curve" smooth="yes"/>
      <point x="265.662" y="-133.179" type="line" smooth="yes"/>
      <point x="265.662" y="-192.209"/>
      <point x="251.772" y="-215.246"/>
      <point x="153.071" y="-225.838" type="curve"/>
      <point x="138.045" y="-171.381"/>
      <point x="137.389" y="-169.001"/>
      <point x="7.78711" y="-153.297" type="curve"/>
    </contour>
  </outline>
</glyph>
<glyph name="k.medi" format="2">
  <advance width="310"/>
  <unicode hex="E01F"/>
  <outline>
    <contour>
      <point x="186.052" y="-218.182" type="curve"/>
      <point x="130.923" y="-152.568" type="line"/>
      <point x="114.88" y="-152.568" type="line" smooth="yes"/>
      <point x="91.4365" y="-152.568"/>
      <point x="23.8633" y="-157.678"/>
      <point x="7.80469" y="-158.895" type="curve"/>
      <point x="26.084" y="-105.971" type="line"/>
      <point x="46.3848" y="-111.477"/>
      <point x="94.2832" y="-116.677"/>
      <point x="115.366" y="-116.677" type="curve" smooth="yes"/>
      <point x="284.439" y="-116.677" type="line" smooth="yes"/>
      <point x="298.209" y="-116.677"/>
      <point x="300.509" y="-120.617"/>
      <point x="291.264" y="-129.246" type="curve" smooth="yes"/>
      <point x="264.793" y="-153.95"/>
      <point x="217.997" y="-193.197"/>
    </contour>
    <contour>
      <point x="-7.78613" y="402.553" type="line"/>
      <point x="317.97" y="402.553" type="line"/>
      <point x="317.97" y="366.661" type="line"/>
      <point x="195.723" y="366.661" type="line"/>
      <point x="195.723" y="7.78613" type="line"/>
      <point x="173.988" y="-3.94727"/>
      <point x="141.548" y="-15.4941"/>
      <point x="114.462" y="-21.252" type="curve"/>
      <point x="114.462" y="366.661" type="line"/>
      <point x="-7.78613" y="366.661" type="line"/>
    </contour>
  </outline>
</glyph>
<glyph name="k.fina" format="2">
  <advance width="472"/>
  <unicode hex="E020"/>
  <outline>
    <contour>
      <point x="198.716" y="77.9639" type="line"/>
      <point x="198.857" y="77.9576"/>
      <point x="200.533" y="77.8592"/>
      <point x="203.382" y="77.6919" type="curve" smooth="yes"/>
      <point x="223.048" y="76.5368"/>
      <point x="298.564" y="72.1016"/>
      <point x="309.986" y="72.1016" type="curve" smooth="yes"/>
      <point x="329.429" y="72.1016"/>
      <point x="336.401" y="77.7852"/>
      <point x="336.401" y="94.0869" type="curve" smooth="yes"/>
      <point x="336.401" y="366.66" type="line"/>
      <point x="-7.78613" y="366.66" type="line"/>
      <point x="-7.78613" y="402.553" type="line"/>
      <point x="319.202" y="402.553" type="line"/>
      <point x="355.544" y="415.452"/>
      <point x="385.554" y="424.414"/>
      <point x="421.791" y="432.688" type="curve"/>
      <point x="419.728" y="415.484"/>
      <point x="417.663" y="369.188"/>
      <point x="417.663" y="331.712" type="curve" smooth="yes"/>
      <point x="417.663" y="78.6172" type="line" smooth="yes"/>
      <point x="417.663" y="19.5859"/>
      <point x="403.769" y="-3.4502"/>
      <point x="305.067" y="-14.041" type="curve"/>
      <point x="290.2" y="39.8447"/>
      <point x="269.813" y="49.8838"/>
      <point x="198.716" y="58.499" type="curve"/>
    </contour>
    <contour>
      <point x="135.581" y="304.373" type="curve"/>
      <point x="135.581" y="-204.018" type="line"/>
      <point x="113.848" y="-215.751"/>
      <point x="81.4072" y="-227.298"/>
      <point x="54.3203" y="-233.056" type="curve"/>
      <point x="54.3203" y="237.137" type="line"/>
      <point x="18.3066" y="277.438" type="line"/>
      <point x="49.4834" y="287.168"/>
      <point x="102.513" y="299.856"/>
    </contour>
    <contour>
      <point x="146.513" y="588.429" type="curve"/>
      <point x="201.642" y="522.815" type="line"/>
      <point x="262.943" y="522.815" type="line" smooth="yes"/>
      <point x="286.387" y="522.815"/>
      <point x="353.957" y="527.925"/>
      <point x="370.015" y="529.142" type="curve"/>
      <point x="351.74" y="476.218" type="line"/>
      <point x="331.438" y="481.723"/>
      <point x="283.539" y="486.923"/>
      <point x="262.457" y="486.923" type="curve" smooth="yes"/>
      <point x="48.125" y="486.923" type="line" smooth="yes"/>
      <point x="34.3555" y="486.923"/>
      <point x="32.0557" y="490.863"/>
      <point x="41.3008" y="499.492" type="curve" smooth="yes"/>
      <point x="67.7725" y="524.196"/>
      <point x="114.566" y="563.443"/>
    </contour>
  </outline>
</glyph>
<glyph name="l.init" format="2">
  <advance width="566"/>
  <unicode hex="E021"/>
  <outline>
    <contour>
      <point x="266.267" y="-108.52" type="line"/>
      <point x="265.63" y="-110.002"/>
      <point x="202.48" y="-253.792"/>
      <point x="196.197" y="-253.792" type="curve" smooth="yes"/>
      <point x="189.916" y="-253.792"/>
      <point x="126.765" y="-110.002"/>
      <point x="126.129" y="-108.52" type="curve"/>
      <point x="138.336" y="-108.52" type="line"/>
      <point x="196.197" y="-137.557" type="line"/>
      <point x="254.06" y="-108.52" type="line"/>
    </contour>
    <contour>
      <point x="90.6465" y="104.126" type="line"/>
      <point x="105.562" y="103.966"/>
      <point x="105.562" y="103.966"/>
      <point x="112.517" y="103.966" type="curve" smooth="yes"/>
      <point x="192.769" y="103.966"/>
      <point x="247.977" y="166.138"/>
      <point x="247.977" y="241.98" type="curve" smooth="yes"/>
      <point x="247.977" y="327.865"/>
      <point x="204.27" y="376.422"/>
      <point x="106.955" y="376.422" type="curve" smooth="yes"/>
      <point x="106.416" y="376.422"/>
      <point x="105.874" y="376.421"/>
      <point x="105.331" y="376.418" type="curve"/>
      <point x="105.331" y="393.818" type="line"/>
      <point x="166.552" y="409.436" type="line" smooth="yes"/>
      <point x="167.856" y="409.45"/>
      <point x="169.153" y="409.458"/>
      <point x="170.442" y="409.458" type="curve" smooth="yes"/>
      <point x="276.115" y="409.458"/>
      <point x="330.033" y="359.785"/>
      <point x="330.033" y="259.678" type="curve" smooth="yes"/>
      <point x="330.033" y="176.412"/>
      <point x="277.871" y="114.468"/>
      <point x="208.547" y="93.2891" type="curve" smooth="yes"/>
      <point x="207.607" y="93.0019"/>
      <point x="137.923" y="72.7943"/>
      <point x="113.253" y="69.255" type="curve"/>
      <point x="142.917" y="41.9843"/>
      <point x="193.27" y="26.2139"/>
      <point x="251.369" y="26.2139" type="curve" smooth="yes"/>
      <point x="328.839" y="26.2139"/>
      <point x="400.858" y="69.9811"/>
      <point x="430.382" y="138.54" type="curve"/>
      <point x="430.382" y="355.891" type="line"/>
      <point x="388.654" y="400.651" type="line"/>
      <point x="411.639" y="413.585"/>
      <point x="462.189" y="438.504"/>
      <point x="489.384" y="448.458" type="curve"/>
      <point x="517.142" y="402.553" type="line"/>
      <point x="573.752" y="402.553" type="line"/>
      <point x="573.752" y="366.661" type="line"/>
      <point x="511.643" y="366.661" type="line"/>
      <point x="511.643" y="8.24414" type="line"/>
      <point x="489.908" y="-3.48926"/>
      <point x="457.469" y="-15.0352"/>
      <point x="430.382" y="-20.793" type="curve"/>
      <point x="430.382" y="52.9881" type="line"/>
      <point x="379.144" y="14.49"/>
      <point x="247.219" y="-18.8614"/>
      <point x="245.284" y="-19.3164" type="curve" smooth="yes"/>
      <point x="238.309" y="-19.9465"/>
      <point x="231.101" y="-20.254"/>
      <point x="223.731" y="-20.254" type="curve" smooth="yes"/>
      <point x="140.449" y="-20.254"/>
      <point x="36.4644" y="19.0114"/>
      <point x="14.3232" y="75.8047" type="curve"/>
      <point x="14.3232" y="85.0449" type="line"/>
    </contour>
  </outline>
</glyph>
<glyph name="l.medi" format="2">
  <advance width="190"/>
  <unicode hex="E022"/>
  <outline>
    <contour>
      <point x="165.021" y="-108.52" type="line"/>
      <point x="164.384" y="-110.002"/>
      <point x="101.235" y="-253.792"/>
      <point x="94.9512" y="-253.792" type="curve" smooth="yes"/>
      <point x="88.6701" y="-253.792"/>
      <point x="25.5189" y="-110.002"/>
      <point x="24.8828" y="-108.52" type="curve"/>
      <point x="37.0898" y="-108.52" type="line"/>
      <point x="94.9512" y="-137.557" type="line"/>
      <point x="152.813" y="-108.52" type="line"/>
    </contour>
    <contour>
      <point x="-7.78613" y="402.553" type="line"/>
      <point x="197.691" y="402.553" type="line"/>
      <point x="197.691" y="366.661" type="line"/>
      <point x="135.584" y="366.661" type="line"/>
      <point x="135.584" y="7.78711" type="line"/>
      <point x="113.851" y="-3.94531"/>
      <point x="81.4102" y="-15.4922"/>
      <point x="54.3232" y="-21.25" type="curve"/>
      <point x="54.3232" y="366.661" type="line"/>
      <point x="-7.78613" y="366.661" type="line"/>
    </contour>
  </outline>
</glyph>
<glyph name="l.fina" format="2">
  <advance width="472"/>
  <unicode hex="E023"/>
  <outline>
    <contour>
      <point x="198.716" y="77.9639" type="line"/>
      <point x="198.857" y="77.9576"/>
      <point x="200.534" y="77.8591"/>
      <point x="203.382" y="77.6919" type="curve" smooth="yes"/>
      <point x="223.049" y="76.5368"/>
      <point x="298.565" y="72.1016"/>
      <point x="309.987" y="72.1016" type="curve" smooth="yes"/>
      <point x="329.429" y="72.1016"/>
      <point x="336.402" y="77.7852"/>
      <point x="336.402" y="94.0869" type="curve" smooth="yes"/>
      <point x="336.402" y="366.661" type="line"/>
      <point x="-7.78516" y="366.661" type="line"/>
      <point x="-7.78516" y="402.553" type="line"/>
      <point x="319.203" y="402.553" type="line"/>
      <point x="355.545" y="415.452"/>
      <point x="385.555" y="424.414"/>
      <point x="421.792" y="432.688" type="curve"/>
      <point x="419.728" y="415.484"/>
      <point x="417.664" y="369.188"/>
      <point x="417.664" y="331.712" type="curve" smooth="yes"/>
      <point x="417.664" y="78.6172" type="line" smooth="yes"/>
      <point x="417.664" y="19.5869"/>
      <point x="403.769" y="-3.4502"/>
      <point x="305.068" y="-14.041" type="curve"/>
      <point x="290.201" y="39.8447"/>
      <point x="269.814" y="49.8838"/>
      <point x="198.716" y="58.499" type="curve"/>
    </contour>
    <contour>
      <point x="135.582" y="304.373" type="curve"/>
      <point x="135.582" y="-204.018" type="line"/>
      <point x="113.849" y="-215.751"/>
      <point x="81.4082" y="-227.298"/>
      <point x="54.3213" y="-233.055" type="curve"/>
      <point x="54.3213" y="237.137" type="line"/>
      <point x="18.3076" y="277.438" type="line"/>
      <point x="49.4844" y="287.169"/>
      <point x="102.514" y="299.856"/>
    </contour>
    <contour>
      <point x="135.423" y="490.088" type="line"/>
      <point x="136.059" y="491.57"/>
      <point x="199.21" y="635.36"/>
      <point x="205.491" y="635.36" type="curve" smooth="yes"/>
      <point x="211.775" y="635.36"/>
      <point x="274.924" y="491.57"/>
      <point x="275.561" y="490.088" type="curve"/>
      <point x="263.354" y="490.088" type="line"/>
      <point x="205.491" y="519.125" type="line"/>
      <point x="147.63" y="490.088" type="line"/>
    </contour>
  </outline>
</glyph>
<glyph name="m.init" format="2">
  <advance width="566"/>
  <unicode hex="E024"/>
  <outline>
    <contour>
      <point x="335.978" y="547.457" type="curve" smooth="yes"/>
      <point x="335.978" y="518.061"/>
      <point x="312.147" y="494.23"/>
      <point x="282.752" y="494.23" type="curve" smooth="yes"/>
      <point x="253.355" y="494.23"/>
      <point x="229.525" y="518.061"/>
      <point x="229.525" y="547.457" type="curve" smooth="yes"/>
      <point x="229.525" y="576.854"/>
      <point x="253.355" y="600.684"/>
      <point x="282.752" y="600.684" type="curve" smooth="yes"/>
      <point x="312.147" y="600.684"/>
      <point x="335.978" y="576.854"/>
    </contour>
    <contour>
      <point x="90.6465" y="104.126" type="line"/>
      <point x="105.321" y="103.966"/>
      <point x="105.321" y="103.966"/>
      <point x="112.517" y="103.966" type="curve" smooth="yes"/>
      <point x="192.769" y="103.966"/>
      <point x="247.977" y="166.138"/>
      <point x="247.977" y="241.979" type="curve" smooth="yes"/>
      <point x="247.977" y="327.865"/>
      <point x="204.27" y="376.422"/>
      <point x="106.955" y="376.422" type="curve" smooth="yes"/>
      <point x="106.416" y="376.422"/>
      <point x="105.874" y="376.421"/>
      <point x="105.331" y="376.418" type="curve"/>
      <point x="105.331" y="393.818" type="line"/>
      <point x="166.553" y="409.436" type="line" smooth="yes"/>
      <point x="167.857" y="409.45"/>
      <point x="169.154" y="409.458"/>
      <point x="170.443" y="409.458" type="curve" smooth="yes"/>
      <point x="276.115" y="409.458"/>
      <point x="330.034" y="359.785"/>
      <point x="330.034" y="259.678" type="curve" smooth="yes"/>
      <point x="330.034" y="176.411"/>
      <point x="277.871" y="114.467"/>
      <point x="208.548" y="93.2891" type="curve" smooth="yes"/>
      <point x="207.608" y="93.002"/>
      <point x="137.927" y="72.7951"/>
      <point x="113.253" y="69.2545" type="curve"/>
      <point x="142.917" y="41.9839"/>
      <point x="193.269" y="26.2139"/>
      <point x="251.369" y="26.2139" type="curve" smooth="yes"/>
      <point x="328.839" y="26.2139"/>
      <point x="400.856" y="69.9801"/>
      <point x="430.382" y="138.537" type="curve"/>
      <point x="430.382" y="355.891" type="line"/>
      <point x="388.654" y="400.651" type="line"/>
      <point x="411.639" y="413.585"/>
      <point x="462.189" y="438.504"/>
      <point x="489.385" y="448.458" type="curve"/>
      <point x="517.142" y="402.552" type="line"/>
      <point x="573.752" y="402.552" type="line"/>
      <point x="573.752" y="366.66" type="line"/>
      <point x="511.643" y="366.66" type="line"/>
      <point x="511.643" y="-204.013" type="line"/>
      <point x="489.909" y="-215.746"/>
      <point x="457.469" y="-227.293"/>
      <point x="430.382" y="-233.051" type="curve"/>
      <point x="430.382" y="52.9877" type="line"/>
      <point x="379.144" y="14.4902"/>
      <point x="247.219" y="-18.8614"/>
      <point x="245.284" y="-19.3164" type="curve" smooth="yes"/>
      <point x="238.309" y="-19.9465"/>
      <point x="231.101" y="-20.254"/>
      <point x="223.731" y="-20.254" type="curve" smooth="yes"/>
      <point x="140.449" y="-20.254"/>
      <point x="36.4654" y="19.0105"/>
      <point x="14.3242" y="75.8037" type="curve"/>
      <point x="14.3242" y="85.0449" type="line"/>
    </contour>
  </outline>
</glyph>
<glyph name="m.medi" format="2">
  <advance width="190"/>
  <unicode hex="E025"/>
  <outline>
    <contour>
      <point x="-7.78613" y="402.553" type="line"/>
      <point x="197.691" y="402.553" type="line"/>
      <point x="197.691" y="366.661" type="line"/>
      <point x="135.585" y="366.661" type="line"/>
      <point x="135.585" y="7.78711" type="line"/>
      <point x="113.851" y="-3.94531"/>
      <point x="81.4102" y="-15.4922"/>
      <point x="54.3232" y="-21.25" type="curve"/>
      <point x="54.3232" y="366.661" type="line"/>
      <point x="-7.78613" y="366.661" type="line"/>
    </contour>
    <contour>
      <point x="153.044" y="-165.175" type="curve" smooth="yes"/>
      <point x="153.044" y="-194.571"/>
      <point x="129.214" y="-218.401"/>
      <point x="99.8174" y="-218.401" type="curve" smooth="yes"/>
      <point x="70.4219" y="-218.401"/>
      <point x="46.5908" y="-194.571"/>
      <point x="46.5908" y="-165.175" type="curve" smooth="yes"/>
      <point x="46.5908" y="-135.778"/>
      <point x="70.4219" y="-111.948"/>
      <point x="99.8174" y="-111.948" type="curve" smooth="yes"/>
      <point x="129.214" y="-111.948"/>
      <point x="153.044" y="-135.778"/>
    </contour>
  </outline>
</glyph>
<glyph name="n.fina" format="2">
  <advance width="190"/>
  <unicode hex="E029"/>
  <outline>
    <contour>
      <point x="139.714" y="432.688" type="curve"/>
      <point x="137.648" y="415.484"/>
      <point x="135.584" y="369.188"/>
      <point x="135.584" y="331.712" type="curve" smooth="yes"/>
      <point x="135.584" y="-204.018" type="line"/>
      <point x="113.851" y="-215.751"/>
      <point x="81.4092" y="-227.297"/>
      <point x="54.3223" y="-233.055" type="curve"/>
      <point x="54.3223" y="366.66" type="line"/>
      <point x="-7.78516" y="366.66" type="line"/>
      <point x="-7.78516" y="402.553" type="line"/>
      <point x="37.124" y="402.553" type="line"/>
      <point x="73.4658" y="415.452"/>
      <point x="103.476" y="424.414"/>
    </contour>
  </outline>
</glyph>
<glyph name="p.fina" format="2">
  <advance width="190"/>
  <unicode hex="E02F"/>
  <outline>
    <contour>
      <point x="139.712" y="432.696" type="curve"/>
      <point x="137.647" y="415.492"/>
      <point x="135.584" y="369.196"/>
      <point x="135.584" y="331.72" type="curve" smooth="yes"/>
      <point x="135.584" y="8.24805" type="line"/>
      <point x="113.85" y="-3.48535"/>
      <point x="81.4092" y="-15.0312"/>
      <point x="54.3223" y="-20.7891" type="curve"/>
      <point x="54.3223" y="366.661" type="line"/>
      <point x="-7.78516" y="366.661" type="line"/>
      <point x="-7.78516" y="402.553" type="line"/>
      <point x="37.123" y="402.56" type="line"/>
      <point x="73.4648" y="415.459"/>
      <point x="103.475" y="424.422"/>
    </contour>
  </outline>
</glyph>
<glyph name="q.fina" format="2">
  <advance width="530"/>
  <unicode hex="E032"/>
  <outline>
    <contour>
      <point x="313.271" y="412.473" type="curve"/>
      <point x="322.615" y="413.07"/>
      <point x="331.675" y="413.372"/>
      <point x="340.436" y="413.372" type="curve" smooth="yes"/>
      <point x="440.532" y="413.372"/>
      <point x="501.585" y="374.058"/>
      <point x="501.585" y="288.645" type="curve" smooth="yes"/>
      <point x="501.585" y="157.252"/>
      <point x="387.939" y="75.1104"/>
      <point x="290.943" y="38.7539" type="curve" smooth="yes"/>
      <point x="202.476" y="5.59417"/>
      <point x="167.673" y="-5.46328"/>
      <point x="135.584" y="-9.96429" type="curve"/>
      <point x="135.584" y="-204.013" type="line"/>
      <point x="113.85" y="-215.746"/>
      <point x="81.4092" y="-227.292"/>
      <point x="54.3223" y="-233.05" type="curve"/>
      <point x="54.3223" y="366.659" type="line"/>
      <point x="-7.78516" y="366.659" type="line"/>
      <point x="-7.78516" y="402.552" type="line"/>
      <point x="37.124" y="402.552" type="line"/>
      <point x="73.4648" y="415.451"/>
      <point x="103.476" y="424.413"/>
      <point x="139.713" y="432.688" type="curve"/>
      <point x="138.123" y="419.436"/>
      <point x="136.533" y="388.926"/>
      <point x="135.886" y="358.48" type="curve"/>
      <point x="223.423" y="388.682"/>
      <point x="286.918" y="405.914"/>
    </contour>
    <contour>
      <point x="165.123" y="643.561" type="curve"/>
      <point x="220.251" y="577.947" type="line"/>
      <point x="331.672" y="577.947" type="line" smooth="yes"/>
      <point x="355.115" y="577.947"/>
      <point x="422.688" y="583.057"/>
      <point x="438.746" y="584.273" type="curve"/>
      <point x="420.468" y="531.35" type="line"/>
      <point x="400.166" y="536.854"/>
      <point x="352.268" y="542.055"/>
      <point x="331.185" y="542.055" type="curve" smooth="yes"/>
      <point x="66.7305" y="542.055" type="line" smooth="yes"/>
      <point x="52.9619" y="542.055"/>
      <point x="50.6621" y="545.995"/>
      <point x="59.9072" y="554.624" type="curve" smooth="yes"/>
      <point x="86.3789" y="579.328"/>
      <point x="133.177" y="618.575"/>
    </contour>
    <contour>
      <point x="135.584" y="37.8641" type="line"/>
      <point x="137.89" y="37.7931"/>
      <point x="140.208" y="37.7578"/>
      <point x="142.538" y="37.7578" type="curve" smooth="yes"/>
      <point x="264.076" y="37.7578"/>
      <point x="417.4" y="133.815"/>
      <point x="417.4" y="272.1" type="curve" smooth="yes"/>
      <point x="417.4" y="351.614"/>
      <point x="364.362" y="370.582"/>
      <point x="301.588" y="370.582" type="curve" smooth="yes"/>
      <point x="242.532" y="370.582"/>
      <point x="159.652" y="328.938"/>
      <point x="135.584" y="305.066" type="curve"/>
    </contour>
  </outline>
</glyph>
<glyph name="r.medi" format="2">
  <advance width="445"/>
  <unicode hex="E034"/>
  <outline>
    <contour>
      <point x="390.521" y="366.659" type="line"/>
      <point x="390.521" y="151.107" type="line" smooth="yes"/>
      <point x="390.521" y="68.293"/>
      <point x="354.635" y="37.4766"/>
      <point x="316.305" y="19.1094" type="curve" smooth="yes"/>
      <point x="293.891" y="8.36839"/>
      <point x="237.036" y="-16.3253"/>
      <point x="188.219" y="-16.3253" type="curve" smooth="yes"/>
      <point x="123.218" y="-16.3253"/>
      <point x="54.3184" y="17.1702"/>
      <point x="54.3184" y="119.809" type="curve" smooth="yes"/>
      <point x="54.3184" y="366.66" type="line"/>
      <point x="-7.78613" y="366.66" type="line"/>
      <point x="-7.78613" y="402.552" type="line"/>
      <point x="37.123" y="402.556" type="line"/>
      <point x="73.4639" y="415.455"/>
      <point x="103.474" y="424.418"/>
      <point x="139.712" y="432.692" type="curve"/>
      <point x="137.647" y="415.485"/>
      <point x="135.579" y="369.192"/>
      <point x="135.579" y="331.719" type="curve" smooth="yes"/>
      <point x="135.579" y="143.363" type="line" smooth="yes"/>
      <point x="135.579" y="60.8906"/>
      <point x="173.864" y="29.4873"/>
      <point x="227.025" y="29.4873" type="curve" smooth="yes"/>
      <point x="272.979" y="29.4873"/>
      <point x="309.26" y="58.1641"/>
      <point x="309.26" y="127.553" type="curve" smooth="yes"/>
      <point x="309.26" y="353.826" type="line"/>
      <point x="267.533" y="398.587" type="line"/>
      <point x="290.518" y="411.521"/>
      <point x="341.07" y="436.436"/>
      <point x="368.262" y="446.39" type="curve"/>
      <point x="394.773" y="402.551" type="line"/>
      <point x="452.629" y="402.551" type="line"/>
      <point x="452.629" y="366.659" type="line"/>
    </contour>
  </outline>
</glyph>
<glyph name="r.fina" format="2">
  <advance width="441"/>
  <unicode hex="E035"/>
  <outline>
    <contour>
      <point x="417.818" y="408.877" type="curve"/>
      <point x="399.543" y="355.953" type="line"/>
      <point x="367.939" y="364.422"/>
      <point x="334.191" y="372.723"/>
      <point x="278.333" y="372.723" type="curve" smooth="yes"/>
      <point x="165.208" y="372.723"/>
      <point x="109.655" y="322.516"/>
      <point x="109.655" y="229.211" type="curve" smooth="yes"/>
      <point x="109.655" y="101.842"/>
      <point x="210.32" y="23.549"/>
      <point x="330.837" y="23.549" type="curve" smooth="yes"/>
      <point x="351.471" y="23.549"/>
      <point x="372.687" y="25.8441"/>
      <point x="394.08" y="30.5811" type="curve"/>
      <point x="394.08" y="11.9951" type="line"/>
      <point x="309.605" y="-8.45801" type="line" smooth="yes"/>
      <point x="289.811" y="-13.2508"/>
      <point x="270.014" y="-15.5741"/>
      <point x="250.607" y="-15.5741" type="curve" smooth="yes"/>
      <point x="132.309" y="-15.5741"/>
      <point x="28.542" y="70.759"/>
      <point x="28.542" y="210.316" type="curve" smooth="yes"/>
      <point x="28.542" y="287.434"/>
      <point x="69.9873" y="343.457"/>
      <point x="134.746" y="362.357" type="curve" smooth="yes"/>
      <point x="139.475" y="363.737"/>
      <point x="143.543" y="364.875"/>
      <point x="150.2" y="366.659" type="curve"/>
      <point x="-7.78711" y="366.659" type="line"/>
      <point x="-7.78711" y="402.551" type="line"/>
      <point x="306.854" y="402.551" type="line" smooth="yes"/>
      <point x="330.298" y="402.551"/>
      <point x="401.762" y="407.66"/>
    </contour>
  </outline>
</glyph>
<glyph name="s.fina" format="2">
  <advance width="472"/>
  <unicode hex="E038"/>
  <outline>
    <contour>
      <point x="135.582" y="304.372" type="curve"/>
      <point x="135.582" y="-204.019" type="line"/>
      <point x="113.848" y="-215.752"/>
      <point x="81.4072" y="-227.299"/>
      <point x="54.3203" y="-233.057" type="curve"/>
      <point x="54.3203" y="237.136" type="line"/>
      <point x="18.3076" y="277.438" type="line"/>
      <point x="49.4834" y="287.168"/>
      <point x="102.513" y="299.855"/>
    </contour>
    <contour>
      <point x="198.716" y="77.9629" type="line"/>
      <point x="198.857" y="77.9567"/>
      <point x="200.533" y="77.8582"/>
      <point x="203.382" y="77.6909" type="curve" smooth="yes"/>
      <point x="223.048" y="76.5358"/>
      <point x="298.565" y="72.1006"/>
      <point x="309.987" y="72.1006" type="curve" smooth="yes"/>
      <point x="329.429" y="72.1006"/>
      <point x="336.401" y="77.7842"/>
      <point x="336.401" y="94.0859" type="curve" smooth="yes"/>
      <point x="336.401" y="366.66" type="line"/>
      <point x="-7.78613" y="366.66" type="line"/>
      <point x="-7.78613" y="402.552" type="line"/>
      <point x="319.203" y="402.552" type="line"/>
      <point x="355.545" y="415.451"/>
      <point x="385.554" y="424.413"/>
      <point x="421.792" y="432.688" type="curve"/>
      <point x="419.728" y="415.483"/>
      <point x="417.663" y="369.188"/>
      <point x="417.663" y="331.711" type="curve" smooth="yes"/>
      <point x="417.663" y="78.6162" type="line" smooth="yes"/>
      <point x="417.663" y="19.5859"/>
      <point x="403.769" y="-3.45117"/>
      <point x="305.067" y="-14.042" type="curve"/>
      <point x="290.2" y="39.8438"/>
      <point x="269.814" y="49.8828"/>
      <point x="198.716" y="58.498" type="curve"/>
    </contour>
    <contour>
      <point x="204.571" y="642.404" type="curve" smooth="yes"/>
      <point x="258.927" y="642.404"/>
      <point x="296.957" y="605.631"/>
      <point x="296.957" y="550.018" type="curve" smooth="yes"/>
      <point x="296.95" y="494.409"/>
      <point x="256.849" y="457.634"/>
      <point x="204.565" y="457.634" type="curve" smooth="yes"/>
      <point x="152.295" y="457.634"/>
      <point x="112.178" y="495.242"/>
      <point x="112.178" y="550.02" type="curve" smooth="yes"/>
      <point x="112.188" y="604.796"/>
      <point x="150.202" y="642.404"/>
    </contour>
    <contour>
      <point x="204.565" y="617" type="curve" smooth="yes"/>
      <point x="176.231" y="617"/>
      <point x="148.505" y="591.76"/>
      <point x="148.505" y="549.993" type="curve" smooth="yes"/>
      <point x="148.505" y="508.347"/>
      <point x="176.172" y="483.038"/>
      <point x="204.563" y="483.038" type="curve" smooth="yes"/>
      <point x="232.965" y="483.039"/>
      <point x="260.629" y="507.537"/>
      <point x="260.629" y="550.019" type="curve" smooth="yes"/>
      <point x="260.629" y="592.501"/>
      <point x="232.965" y="617"/>
    </contour>
  </outline>
</glyph>
<glyph name="v.fina" format="2">
  <advance width="530"/>
  <unicode hex="E041"/>
  <outline>
    <contour>
      <point x="192.14" y="483.581" type="line"/>
      <point x="192.776" y="485.063"/>
      <point x="255.926" y="628.854"/>
      <point x="262.209" y="628.854" type="curve" smooth="yes"/>
      <point x="268.491" y="628.854"/>
      <point x="331.641" y="485.063"/>
      <point x="332.277" y="483.581" type="curve"/>
      <point x="320.07" y="483.581" type="line"/>
      <point x="262.209" y="512.618" type="line"/>
      <point x="204.347" y="483.581" type="line"/>
    </contour>
    <contour>
      <point x="301.589" y="370.583" type="curve" smooth="yes"/>
      <point x="241.456" y="370.583"/>
      <point x="159.649" y="328.936"/>
      <point x="135.584" y="305.064" type="curve"/>
      <point x="135.584" y="37.6514" type="line"/>
      <point x="266.978" y="42.3506"/>
      <point x="417.399" y="131.161"/>
      <point x="417.399" y="272.101" type="curve" smooth="yes"/>
      <point x="417.399" y="351.614"/>
      <point x="364.362" y="370.583"/>
    </contour>
    <contour>
      <point x="139.712" y="432.688" type="curve"/>
      <point x="138.122" y="419.435"/>
      <point x="136.543" y="388.928"/>
      <point x="135.896" y="358.479" type="curve"/>
      <point x="223.424" y="388.677"/>
      <point x="286.921" y="405.916"/>
      <point x="313.271" y="412.475" type="curve"/>
      <point x="322.616" y="413.072"/>
      <point x="331.675" y="413.374"/>
      <point x="340.436" y="413.374" type="curve" smooth="yes"/>
      <point x="440.533" y="413.374"/>
      <point x="501.585" y="374.059"/>
      <point x="501.585" y="288.646" type="curve" smooth="yes"/>
      <point x="501.585" y="157.253"/>
      <point x="387.311" y="76.749"/>
      <point x="290.944" y="38.7559" type="curve" smooth="yes"/>
      <point x="217.887" y="9.95312"/>
      <point x="117.295" y="-13.3838"/>
      <point x="54.3223" y="-21.0791" type="curve"/>
      <point x="54.3223" y="366.66" type="line"/>
      <point x="-7.78516" y="366.66" type="line"/>
      <point x="-7.78516" y="402.552" type="line"/>
      <point x="37.123" y="402.552" type="line"/>
      <point x="73.4648" y="415.451"/>
      <point x="103.475" y="424.413"/>
    </contour>
  </outline>
</glyph>
<glyph name="w.fina" format="2">
  <advance width="494"/>
  <unicode hex="E044"/>
  <outline>
    <contour>
      <point x="357.731" y="12.8341" type="line"/>
      <point x="316.454" y="-2.61947"/>
      <point x="266.421" y="-21.2556"/>
      <point x="209.212" y="-21.2556" type="curve" smooth="yes"/>
      <point x="113.045" y="-21.2556"/>
      <point x="54.3184" y="35.166"/>
      <point x="54.3184" y="136.584" type="curve" smooth="yes"/>
      <point x="54.3184" y="366.661" type="line"/>
      <point x="-7.78613" y="366.66" type="line"/>
      <point x="-7.78613" y="402.552" type="line"/>
      <point x="340.532" y="402.56" type="line"/>
      <point x="376.874" y="415.458"/>
      <point x="406.884" y="424.421"/>
      <point x="443.121" y="432.695" type="curve"/>
      <point x="441.058" y="415.491"/>
      <point x="438.993" y="369.195"/>
      <point x="438.993" y="331.719" type="curve" smooth="yes"/>
      <point x="438.993" y="-204.021" type="line"/>
      <point x="417.259" y="-215.754"/>
      <point x="384.818" y="-227.297"/>
      <point x="357.731" y="-233.055" type="curve"/>
    </contour>
    <contour>
      <point x="135.58" y="366.663" type="line"/>
      <point x="135.58" y="160.139" type="line" smooth="yes"/>
      <point x="135.58" y="77.666"/>
      <point x="173.584" y="23.9932"/>
      <point x="257.007" y="23.9932" type="curve" smooth="yes"/>
      <point x="290.047" y="23.9932"/>
      <point x="315.197" y="27.2679"/>
      <point x="357.731" y="62.6735" type="curve"/>
      <point x="357.731" y="366.667" type="line"/>
    </contour>
  </outline>
</glyph>
<glyph name="y.init" format="2">
  <advance width="392"/>
  <unicode hex="E048"/>
  <outline>
    <contour>
      <point x="135.581" y="188.359" type="line"/>
      <point x="175.332" y="197.097"/>
      <point x="205.353" y="203.697"/>
      <point x="224.88" y="203.697" type="curve" smooth="yes"/>
      <point x="235.92" y="203.697"/>
      <point x="246.44" y="202.298"/>
      <point x="256.297" y="199.448" type="curve"/>
      <point x="256.297" y="355.89" type="line"/>
      <point x="214.569" y="400.65" type="line"/>
      <point x="237.554" y="413.584"/>
      <point x="288.104" y="438.503"/>
      <point x="315.299" y="448.457" type="curve"/>
      <point x="343.057" y="402.552" type="line"/>
      <point x="399.667" y="402.552" type="line"/>
      <point x="399.667" y="366.66" type="line"/>
      <point x="337.558" y="366.66" type="line"/>
      <point x="337.558" y="7.95801" type="line"/>
      <point x="315.823" y="-3.77539"/>
      <point x="283.384" y="-15.3213"/>
      <point x="256.297" y="-21.0791" type="curve"/>
      <point x="256.297" y="28.6182" type="line" smooth="yes"/>
      <point x="256.297" y="114.387"/>
      <point x="221.269" y="161.324"/>
      <point x="157.457" y="161.324" type="curve" smooth="yes"/>
      <point x="150.504" y="161.324"/>
      <point x="143.21" y="160.767"/>
      <point x="135.581" y="159.642" type="curve"/>
      <point x="135.581" y="-204.019" type="line"/>
      <point x="113.848" y="-215.752"/>
      <point x="81.4072" y="-227.299"/>
      <point x="54.3203" y="-233.057" type="curve"/>
      <point x="54.3203" y="365.451" type="line"/>
      <point x="18.3066" y="405.754" type="line"/>
      <point x="49.4834" y="415.483"/>
      <point x="102.513" y="428.172"/>
      <point x="135.581" y="432.688" type="curve"/>
    </contour>
  </outline>
</glyph>
<glyph name="y.medi" format="2">
  <advance width="190"/>
  <unicode hex="E049"/>
  <outline>
    <contour>
      <point x="148.178" y="547.458" type="curve" smooth="yes"/>
      <point x="148.178" y="518.062"/>
      <point x="124.347" y="494.231"/>
      <point x="94.9512" y="494.231" type="curve" smooth="yes"/>
      <point x="65.5547" y="494.231"/>
      <point x="41.7236" y="518.062"/>
      <point x="41.7236" y="547.458" type="curve" smooth="yes"/>
      <point x="41.7236" y="576.854"/>
      <point x="65.5547" y="600.685"/>
      <point x="94.9512" y="600.685" type="curve" smooth="yes"/>
      <point x="124.347" y="600.685"/>
      <point x="148.178" y="576.854"/>
    </contour>
    <contour>
      <point x="-7.78516" y="402.552" type="line"/>
      <point x="197.691" y="402.552" type="line"/>
      <point x="197.691" y="366.66" type="line"/>
      <point x="135.583" y="366.66" type="line"/>
      <point x="135.583" y="-204.018" type="line"/>
      <point x="113.85" y="-215.751"/>
      <point x="81.4092" y="-227.298"/>
      <point x="54.3223" y="-233.056" type="curve"/>
      <point x="54.3223" y="366.66" type="line"/>
      <point x="-7.78516" y="366.66" type="line"/>
    </contour>
  </outline>
</glyph>
<glyph name="placeholder" format="2">
  <advance width="422"/>
  <unicode hex="E050"/>
  <outline>
    <contour>
      <point x="50" y="481" type="line"/>
      <point x="67" y="482" type="line"/>
      <point x="67" y="401" type="line"/>
      <point x="50" y="400" type="line"/>
    </contour>
    <contour>
      <point x="50" y="383" type="line"/>
      <point x="67" y="383" type="line"/>
      <point x="67" y="306" type="line"/>
      <point x="50" y="306" type="line"/>
    </contour>
    <contour>
      <point x="50" y="290" type="line"/>
      <point x="67" y="290" type="line"/>
      <point x="67" y="204" type="line"/>
      <point x="50" y="204" type="line"/>
    </contour>
    <contour>
      <point x="50" y="187" type="line"/>
      <point x="67" y="187" type="line"/>
      <point x="67" y="108" type="line"/>
      <point x="50" y="108" type="line"/>
    </contour>
    <contour>
      <point x="50" y="90" type="line"/>
      <point x="67" y="91" type="line"/>
      <point x="67" y="10" type="line"/>
      <point x="50" y="10" type="line"/>
    </contour>
    <contour>
      <point x="50" y="-8" type="line"/>
      <point x="67" y="-8" type="line"/>
      <point x="67" y="-85" type="line"/>
      <point x="50" y="-85" type="line"/>
    </contour>
    <contour>
      <point x="50" y="-102" type="line"/>
      <point x="67" y="-102" type="line"/>
      <point x="67" y="-171" type="line"/>
      <point x="120" y="-171" type="line"/>
      <point x="120" y="-188" type="line"/>
      <point x="50" y="-188" type="line"/>
    </contour>
    <contour>
      <point x="50" y="588" type="curve"/>
      <point x="120" y="588" type="line"/>
      <point x="120" y="570" type="line"/>
      <point x="67" y="570" type="line"/>
      <point x="67" y="498" type="line"/>
      <point x="50" y="498" type="line"/>
      <point x="50" y="528"/>
      <point x="50" y="558"/>
    </contour>
    <contour>
      <point x="133" y="588" type="line"/>
      <point x="204" y="588" type="line"/>
      <point x="204" y="570" type="line"/>
      <point x="133" y="570" type="line"/>
    </contour>
    <contour>
      <point x="217" y="588" type="line"/>
      <point x="288" y="588" type="line"/>
      <point x="288" y="570" type="line"/>
      <point x="217" y="570" type="line"/>
    </contour>
    <contour>
      <point x="300" y="588" type="line"/>
      <point x="372" y="588" type="line"/>
      <point x="372" y="502" type="line"/>
      <point x="355" y="502" type="line"/>
      <point x="355" y="570" type="line"/>
      <point x="300" y="570" type="line"/>
    </contour>
    <contour>
      <point x="372" y="486" type="line"/>
      <point x="372" y="405" type="line"/>
      <point x="355" y="405" type="line"/>
      <point x="355" y="486" type="line"/>
    </contour>
    <contour>
      <point x="372" y="387" type="line"/>
      <point x="372" y="311" type="line"/>
      <point x="355" y="310" type="line"/>
      <point x="355" y="387" type="line"/>
    </contour>
    <contour>
      <point x="372" y="294" type="line"/>
      <point x="372" y="209" type="line"/>
      <point x="355" y="208" type="line"/>
      <point x="355" y="294" type="line"/>
    </contour>
    <contour>
      <point x="187" y="236" type="line"/>
      <point x="183" y="234"/>
      <point x="183" y="234"/>
      <point x="168" y="228" type="curve" smooth="yes"/>
      <point x="162" y="228"/>
      <point x="147" y="228"/>
      <point x="141" y="240" type="curve"/>
      <point x="141" y="243" type="line"/>
      <point x="149" y="245"/>
      <point x="150" y="246"/>
      <point x="150" y="246" type="curve"/>
      <point x="162" y="246"/>
      <point x="167" y="254"/>
      <point x="167" y="262" type="curve" smooth="yes"/>
      <point x="167" y="267"/>
      <point x="165" y="275"/>
      <point x="152" y="275" type="curve"/>
      <point x="152" y="280" type="line"/>
      <point x="160" y="282" type="line" smooth="yes"/>
      <point x="162" y="282"/>
      <point x="177" y="282"/>
      <point x="177" y="262" type="curve" smooth="yes"/>
      <point x="177" y="247"/>
      <point x="164" y="242"/>
      <point x="156" y="239" type="curve"/>
      <point x="163" y="237"/>
      <point x="163" y="237"/>
      <point x="164" y="237" type="curve" smooth="yes"/>
      <point x="173" y="235"/>
      <point x="184" y="242"/>
      <point x="187" y="250" type="curve"/>
      <point x="187" y="273" type="line"/>
      <point x="187" y="273"/>
      <point x="182" y="278"/>
      <point x="182" y="279" type="curve" smooth="yes"/>
      <point x="182" y="280" type="line"/>
      <point x="182.377" y="280.377"/>
      <point x="182.612" y="280.47"/>
      <point x="183.347" y="280.76" type="curve" smooth="yes"/>
      <point x="184.562" y="281.241"/>
      <point x="187.146" y="282.261"/>
      <point x="194" y="286" type="curve"/>
      <point x="197" y="282" type="line"/>
      <point x="206" y="282" type="line"/>
      <point x="208" y="283"/>
      <point x="208" y="283"/>
      <point x="218" y="285" type="curve"/>
      <point x="218" y="276" type="line"/>
      <point x="224" y="278"/>
      <point x="230" y="280"/>
      <point x="236" y="282" type="curve"/>
      <point x="241" y="282" type="line" smooth="yes"/>
      <point x="251.305" y="282"/>
      <point x="257.757" y="274.054"/>
      <point x="257.757" y="264.306" type="curve" smooth="yes"/>
      <point x="257.757" y="254.188"/>
      <point x="250.807" y="242.13"/>
      <point x="234" y="235" type="curve" smooth="yes"/>
      <point x="230" y="234"/>
      <point x="217" y="229"/>
      <point x="217" y="229" type="curve"/>
      <point x="217" y="206" type="line"/>
      <point x="213.5" y="204.5"/>
      <point x="212" y="203.75"/>
      <point x="211" y="203.25" type="curve" smooth="yes"/>
      <point x="210" y="202.75"/>
      <point x="209.5" y="202.5"/>
      <point x="208" y="202" type="curve"/>
      <point x="208" y="274" type="line"/>
      <point x="196" y="274" type="line"/>
      <point x="196" y="231" type="line"/>
      <point x="194" y="229.667"/>
      <point x="192" y="229.222"/>
      <point x="190" y="228.778" type="curve" smooth="yes"/>
      <point x="189" y="228.556"/>
      <point x="188" y="228.333"/>
      <point x="187" y="228" type="curve"/>
    </contour>
    <contour>
      <point x="98" y="279" type="line"/>
      <point x="110" y="286" type="line"/>
      <point x="113" y="282" type="line"/>
      <point x="124" y="282" type="line"/>
      <point x="126" y="283"/>
      <point x="126" y="283"/>
      <point x="136" y="285" type="curve"/>
      <point x="135" y="282"/>
      <point x="135" y="278"/>
      <point x="135" y="273" type="curve" smooth="yes"/>
      <point x="135" y="206" type="line"/>
      <point x="128" y="203"/>
      <point x="128" y="203"/>
      <point x="125" y="202" type="curve"/>
      <point x="125" y="274" type="line"/>
      <point x="112" y="274" type="line"/>
      <point x="112" y="231" type="line"/>
      <point x="110" y="229.667"/>
      <point x="108" y="229.222"/>
      <point x="106" y="228.778" type="curve" smooth="yes"/>
      <point x="105" y="228.556"/>
      <point x="104" y="228.333"/>
      <point x="103" y="228" type="curve"/>
      <point x="103" y="273" type="line"/>
    </contour>
    <contour>
      <point x="261" y="281" type="line"/>
      <point x="264" y="283"/>
      <point x="272" y="286"/>
      <point x="272" y="286" type="curve"/>
      <point x="272.764" y="285.236"/>
      <point x="273.236" y="284.91"/>
      <point x="273.639" y="284.631" type="curve" smooth="yes"/>
      <point x="274.292" y="284.18"/>
      <point x="274.764" y="283.854"/>
      <point x="276" y="282" type="curve"/>
      <point x="307" y="282" type="line"/>
      <point x="309" y="283"/>
      <point x="309" y="283"/>
      <point x="319" y="285" type="curve"/>
      <point x="319" y="284.172"/>
      <point x="318.828" y="283.172"/>
      <point x="318.627" y="282" type="curve" smooth="yes"/>
      <point x="318.343" y="280.343"/>
      <point x="318" y="278.343"/>
      <point x="318" y="276" type="curve" smooth="yes"/>
      <point x="318" y="256" type="line"/>
      <point x="320" y="256" type="line" smooth="yes"/>
      <point x="322.639" y="256"/>
      <point x="325.279" y="256.279"/>
      <point x="327.771" y="256.542" type="curve" smooth="yes"/>
      <point x="330" y="256.777"/>
      <point x="332.111" y="257"/>
      <point x="334" y="257" type="curve" smooth="yes"/>
      <point x="339" y="257" type="line"/>
      <point x="339" y="256"/>
      <point x="338" y="253"/>
      <point x="336" y="247" type="curve" smooth="yes"/>
      <point x="335.98" y="247"/>
      <point x="335.884" y="247.025"/>
      <point x="335.713" y="247.069" type="curve" smooth="yes"/>
      <point x="334.351" y="247.42"/>
      <point x="328.233" y="249"/>
      <point x="318" y="249" type="curve"/>
      <point x="318" y="206" type="line"/>
      <point x="311" y="203"/>
      <point x="311" y="203"/>
      <point x="308" y="202" type="curve"/>
      <point x="308" y="274" type="line"/>
      <point x="297" y="274" type="line"/>
      <point x="297" y="231" type="line"/>
      <point x="293.5" y="229.5"/>
      <point x="292" y="228.75"/>
      <point x="291" y="228.25" type="curve" smooth="yes"/>
      <point x="290" y="227.75"/>
      <point x="289.5" y="227.5"/>
      <point x="288" y="227" type="curve"/>
      <point x="288" y="274" type="line"/>
      <point x="276" y="274" type="line"/>
      <point x="276" y="206" type="line"/>
      <point x="269" y="203"/>
      <point x="269" y="203"/>
      <point x="266" y="202" type="curve"/>
      <point x="266" y="273" type="line"/>
    </contour>
    <contour>
      <point x="220" y="238" type="curve" smooth="yes"/>
      <point x="245" y="242"/>
      <point x="247" y="262"/>
      <point x="247" y="262" type="curve" smooth="yes"/>
      <point x="248" y="264"/>
      <point x="250" y="274"/>
      <point x="235" y="274" type="curve" smooth="yes"/>
      <point x="229" y="274"/>
      <point x="219" y="269"/>
      <point x="217" y="267" type="curve"/>
      <point x="217" y="238" type="line"/>
      <point x="218" y="238"/>
      <point x="219" y="238"/>
    </contour>
    <contour>
      <point x="168" y="221" type="line" smooth="yes"/>
      <point x="169" y="221"/>
      <point x="170" y="221"/>
      <point x="170" y="220" type="curve" smooth="yes"/>
      <point x="170" y="218" type="line" smooth="yes"/>
      <point x="170" y="217.799"/>
      <point x="168.829" y="210.439"/>
      <point x="161" y="200" type="curve"/>
      <point x="159" y="206"/>
      <point x="153" y="219"/>
      <point x="153" y="219" type="curve"/>
      <point x="153" y="220" type="line" smooth="yes"/>
      <point x="153" y="221"/>
      <point x="155" y="221"/>
      <point x="156" y="221" type="curve" smooth="yes"/>
      <point x="156" y="221"/>
      <point x="157" y="220"/>
      <point x="162" y="217" type="curve"/>
    </contour>
    <contour>
      <point x="223" y="193" type="line"/>
      <point x="219" y="198" type="line"/>
      <point x="219" y="200" type="line"/>
      <point x="220" y="200" type="line"/>
      <point x="225" y="202"/>
      <point x="229" y="203"/>
      <point x="233" y="204" type="curve"/>
      <point x="233" y="178" type="line"/>
      <point x="328" y="178" type="line"/>
      <point x="328" y="178"/>
      <point x="330" y="179"/>
      <point x="332" y="179" type="curve" smooth="yes"/>
      <point x="334" y="179"/>
      <point x="334" y="178"/>
      <point x="334" y="178" type="curve" smooth="yes"/>
      <point x="334" y="177.553"/>
      <point x="333.8" y="177.106"/>
      <point x="333.4" y="176.211" type="curve" smooth="yes"/>
      <point x="332.906" y="175.106"/>
      <point x="332.106" y="173.317"/>
      <point x="331" y="170" type="curve" smooth="yes"/>
      <point x="330.857" y="170.047"/>
      <point x="325.198" y="171.895"/>
      <point x="318.753" y="171.895" type="curve" smooth="yes"/>
      <point x="310.086" y="171.895"/>
      <point x="300" y="168.554"/>
      <point x="300" y="153" type="curve"/>
      <point x="300" y="153"/>
      <point x="301.64" y="133.315"/>
      <point x="323.492" y="133.315" type="curve" smooth="yes"/>
      <point x="325.769" y="133.315"/>
      <point x="328.264" y="133.528"/>
      <point x="331" y="134" type="curve"/>
      <point x="331" y="129" type="line"/>
      <point x="313" y="126" type="line"/>
      <point x="297.735" y="126"/>
      <point x="289.518" y="139.655"/>
      <point x="289.518" y="152.64" type="curve" smooth="yes"/>
      <point x="289.518" y="159.22"/>
      <point x="291.628" y="165.628"/>
      <point x="296" y="170" type="curve"/>
      <point x="281" y="170" type="line"/>
      <point x="281" y="141" type="line"/>
      <point x="277" y="127"/>
      <point x="260" y="126"/>
      <point x="260" y="126" type="curve"/>
      <point x="246" y="126"/>
      <point x="244" y="138"/>
      <point x="244" y="142" type="curve" smooth="yes"/>
      <point x="244" y="170" type="line"/>
      <point x="233" y="170" type="line"/>
      <point x="233" y="103" type="line"/>
      <point x="230" y="101"/>
      <point x="227" y="100"/>
      <point x="223" y="99" type="curve"/>
      <point x="223" y="170" type="line"/>
      <point x="212" y="170" type="line"/>
      <point x="212" y="128" type="line"/>
      <point x="209.725" y="126.483"/>
      <point x="208.025" y="126.117"/>
      <point x="205.592" y="125.592" type="curve" smooth="yes"/>
      <point x="204.817" y="125.425"/>
      <point x="203.967" y="125.242"/>
      <point x="203" y="125" type="curve"/>
      <point x="203" y="170" type="line"/>
      <point x="192" y="170" type="line"/>
      <point x="192" y="137" type="line"/>
      <point x="195" y="128" type="line"/>
      <point x="192.946" y="126.631"/>
      <point x="190.423" y="126.199"/>
      <point x="187.753" y="125.742" type="curve" smooth="yes"/>
      <point x="186.523" y="125.531"/>
      <point x="185.261" y="125.315"/>
      <point x="184" y="125" type="curve"/>
      <point x="183" y="129" type="line"/>
      <point x="180" y="127"/>
      <point x="169" y="125"/>
      <point x="164" y="125" type="curve" smooth="yes"/>
      <point x="149" y="125"/>
      <point x="148" y="142"/>
      <point x="148" y="144" type="curve" smooth="yes"/>
      <point x="148" y="170" type="line"/>
      <point x="137" y="170" type="line"/>
      <point x="137" y="141" type="line"/>
      <point x="133" y="127"/>
      <point x="116" y="126"/>
      <point x="116" y="126" type="curve"/>
      <point x="107" y="124"/>
      <point x="100" y="132"/>
      <point x="100" y="142" type="curve" smooth="yes"/>
      <point x="100" y="170" type="line"/>
      <point x="81" y="170" type="line"/>
      <point x="79" y="171" type="line"/>
      <point x="79" y="174"/>
      <point x="79" y="175"/>
      <point x="92" y="186" type="curve"/>
      <point x="94" y="184"/>
      <point x="96" y="181"/>
      <point x="98" y="178" type="curve"/>
      <point x="182" y="178" type="line"/>
      <point x="182" y="193" type="line"/>
      <point x="182" y="193"/>
      <point x="177" y="197"/>
      <point x="177" y="198" type="curve" smooth="yes"/>
      <point x="177.042" y="198.085"/>
      <point x="177.083" y="198.168"/>
      <point x="177.123" y="198.25" type="curve" smooth="yes"/>
      <point x="178.022" y="200.087"/>
      <point x="178.51" y="201.085"/>
      <point x="190" y="203" type="curve" smooth="yes"/>
      <point x="191" y="203"/>
      <point x="191" y="204"/>
      <point x="191" y="204" type="curve"/>
      <point x="192" y="204" type="line"/>
      <point x="192" y="178" type="line"/>
      <point x="223" y="178" type="line"/>
    </contour>
    <contour>
      <point x="372" y="191" type="line"/>
      <point x="372" y="112" type="line"/>
      <point x="355" y="112" type="line"/>
      <point x="355" y="191" type="line"/>
    </contour>
    <contour>
      <point x="119" y="134" type="curve" smooth="yes"/>
      <point x="124" y="134"/>
      <point x="128" y="136"/>
      <point x="128" y="143" type="curve" smooth="yes"/>
      <point x="128" y="170" type="line"/>
      <point x="110" y="170" type="line"/>
      <point x="110" y="161"/>
      <point x="110" y="154"/>
      <point x="110" y="145" type="curve" smooth="yes"/>
      <point x="110" y="134"/>
      <point x="118" y="134"/>
    </contour>
    <contour>
      <point x="158" y="170" type="line"/>
      <point x="158" y="146" type="line" smooth="yes"/>
      <point x="158" y="144"/>
      <point x="161" y="136"/>
      <point x="164" y="134" type="curve"/>
      <point x="176" y="134" type="line"/>
      <point x="178" y="135"/>
      <point x="180" y="136"/>
      <point x="182" y="138" type="curve"/>
      <point x="182" y="170" type="line"/>
    </contour>
    <contour>
      <point x="263" y="134" type="curve" smooth="yes"/>
      <point x="266" y="134"/>
      <point x="272" y="134"/>
      <point x="272" y="143" type="curve" smooth="yes"/>
      <point x="272" y="170" type="line"/>
      <point x="254" y="170" type="line"/>
      <point x="254" y="147" type="line" smooth="yes"/>
      <point x="254" y="143"/>
      <point x="254" y="134"/>
    </contour>
    <contour>
      <point x="201" y="118" type="curve" smooth="yes"/>
      <point x="201" y="118"/>
      <point x="202" y="117"/>
      <point x="208" y="114" type="curve"/>
      <point x="216" y="117" type="line"/>
      <point x="216" y="114" type="line"/>
      <point x="207" y="98" type="line"/>
      <point x="206" y="100"/>
      <point x="205" y="102"/>
      <point x="199" y="116" type="curve"/>
      <point x="199" y="117" type="line" smooth="yes"/>
      <point x="199" y="118"/>
      <point x="200" y="118"/>
    </contour>
    <contour>
      <point x="372" y="95" type="line"/>
      <point x="372" y="14" type="line"/>
      <point x="355" y="14" type="line"/>
      <point x="355" y="95" type="line"/>
    </contour>
    <contour>
      <point x="372" y="-4" type="line"/>
      <point x="372" y="-81" type="line"/>
      <point x="355" y="-81" type="line"/>
      <point x="355" y="-4" type="line"/>
    </contour>
    <contour>
      <point x="372" y="-98" type="line"/>
      <point x="372" y="-188" type="line"/>
      <point x="300" y="-188" type="line"/>
      <point x="300" y="-171" type="line"/>
      <point x="355" y="-171" type="line"/>
      <point x="355" y="-98" type="line"/>
    </contour>
    <contour>
      <point x="133" y="-171" type="line"/>
      <point x="204" y="-171" type="line"/>
      <point x="204" y="-188" type="line"/>
      <point x="133" y="-188" type="line"/>
    </contour>
    <contour>
      <point x="217" y="-171" type="line"/>
      <point x="288" y="-171" type="line"/>
      <point x="288" y="-188" type="line"/>
      <point x="217" y="-188" type="line"/>
    </contour>
  </outline>
</glyph>
<glyph name="x.long" format="2">
  <advance width="308"/>
  <unicode hex="E051"/>
  <outline>
    <contour>
      <point x="179.427" y="547.457" type="curve" smooth="yes"/>
      <point x="179.427" y="518.061"/>
      <point x="155.596" y="494.23"/>
      <point x="126.2" y="494.23" type="curve" smooth="yes"/>
      <point x="96.8037" y="494.23"/>
      <point x="72.9736" y="518.061"/>
      <point x="72.9736" y="547.457" type="curve" smooth="yes"/>
      <point x="72.9736" y="576.854"/>
      <point x="96.8037" y="600.684"/>
      <point x="126.2" y="600.684" type="curve" smooth="yes"/>
      <point x="155.596" y="600.684"/>
      <point x="179.427" y="576.854"/>
    </contour>
    <contour>
      <point x="-3.8916" y="-133.833" type="line"/>
      <point x="64.5449" y="-136.86"/>
      <point x="128.609" y="-139.694"/>
      <point x="146.307" y="-139.694" type="curve" smooth="yes"/>
      <point x="165.748" y="-139.694"/>
      <point x="172.722" y="-134.01"/>
      <point x="172.722" y="-117.708" type="curve" smooth="yes"/>
      <point x="172.722" y="366.664" type="line"/>
      <point x="-7.78711" y="366.66" type="line"/>
      <point x="-7.78711" y="402.552" type="line"/>
      <point x="155.522" y="402.556" type="line"/>
      <point x="191.864" y="415.455"/>
      <point x="221.874" y="424.418"/>
      <point x="258.111" y="432.692" type="curve"/>
      <point x="256.047" y="415.487"/>
      <point x="253.983" y="369.191"/>
      <point x="253.983" y="331.715" type="curve" smooth="yes"/>
      <point x="253.983" y="-133.179" type="line" smooth="yes"/>
      <point x="253.983" y="-192.21"/>
      <point x="240.094" y="-215.247"/>
      <point x="141.393" y="-225.838" type="curve"/>
      <point x="126.367" y="-171.381"/>
      <point x="125.71" y="-169.001"/>
      <point x="-3.8916" y="-153.297" type="curve"/>
    </contour>
  </outline>
</glyph>
<glyph name="xy_questiondown" format="2">
  <advance width="361"/>
  <unicode hex="E084"/>
  <outline>
    <contour>
      <point x="252.865" y="283.245" type="curve" smooth="yes"/>
      <point x="245.74" y="283.245"/>
      <point x="240.735" y="284.616"/>
      <point x="235.098" y="286.16" type="curve" smooth="yes"/>
      <point x="227.838" y="288.148"/>
      <point x="219.532" y="290.423"/>
      <point x="204.304" y="290.423" type="curve" smooth="yes"/>
      <point x="196.719" y="290.423"/>
      <point x="185.044" y="287.746"/>
      <point x="165.931" y="280.473" type="curve"/>
      <point x="147.473" y="299.238" type="line"/>
      <point x="164.269" y="308.935"/>
      <point x="172.169" y="314.886"/>
      <point x="172.169" y="325.885" type="curve" smooth="yes"/>
      <point x="172.169" y="342.89"/>
      <point x="149.989" y="369.472"/>
      <point x="111.859" y="395.887" type="curve"/>
      <point x="119.709" y="408.841" type="line"/>
      <point x="165.489" y="400.786"/>
      <point x="270.161" y="371.584"/>
      <point x="270.161" y="303.381" type="curve" smooth="yes"/>
      <point x="270.161" y="293.897"/>
      <point x="262.841" y="283.245"/>
    </contour>
    <contour>
      <point x="105.257" y="216.635" type="curve" smooth="yes"/>
      <point x="105.257" y="176.308"/>
      <point x="144.836" y="153.476"/>
      <point x="190.943" y="126.878" type="curve" smooth="yes"/>
      <point x="255.261" y="89.7755"/>
      <point x="332.281" y="45.3451"/>
      <point x="332.281" y="-64.127" type="curve" smooth="yes"/>
      <point x="332.281" y="-161.055"/>
      <point x="277.584" y="-220.687"/>
      <point x="184.926" y="-220.687" type="curve" smooth="yes"/>
      <point x="107.614" y="-220.687"/>
      <point x="46.2734" y="-171.148"/>
      <point x="14.2715" y="-113.968" type="curve"/>
      <point x="26.9697" y="-101.043" type="line"/>
      <point x="73.1406" y="-134.874"/>
      <point x="114.758" y="-154.925"/>
      <point x="161.752" y="-154.925" type="curve" smooth="yes"/>
      <point x="207.702" y="-154.925"/>
      <point x="242.367" y="-125.674"/>
      <point x="242.367" y="-68.9727" type="curve" smooth="yes"/>
      <point x="242.367" y="15.4277"/>
      <point x="184.197" y="56.3896"/>
      <point x="116.229" y="102.094" type="curve" smooth="yes"/>
      <point x="79.9971" y="126.454"/>
      <point x="62.8037" y="147.314"/>
      <point x="62.8037" y="184.584" type="curve" smooth="yes"/>
      <point x="62.8037" y="208.858"/>
      <point x="76.7529" y="232.503"/>
      <point x="97.8076" y="242.706" type="curve"/>
      <point x="109.622" y="238.242" type="line"/>
      <point x="106.586" y="230.72"/>
      <point x="105.257" y="223.501"/>
    </contour>
  </outline>
</glyph>
<glyph name="xy_colon" format="2">
  <advance width="179"/>
  <unicode hex="E085"/>
  <outline>
    <contour>
      <point x="149.342" y="361.979" type="curve" smooth="yes"/>
      <point x="149.342" y="329.001"/>
      <point x="122.568" y="302.227"/>
      <point x="89.5908" y="302.226" type="curve" smooth="yes"/>
      <point x="56.6123" y="302.227"/>
      <point x="29.8389" y="329.001"/>
      <point x="29.8389" y="361.979" type="curve" smooth="yes"/>
      <point x="29.8389" y="394.956"/>
      <point x="56.6123" y="421.73"/>
      <point x="89.5908" y="421.731" type="curve" smooth="yes"/>
      <point x="122.568" y="421.73"/>
      <point x="149.342" y="394.956"/>
    </contour>
    <contour>
      <point x="149.342" y="79.1318" type="curve" smooth="yes"/>
      <point x="149.342" y="46.1543"/>
      <point x="122.568" y="19.3799"/>
      <point x="89.5908" y="19.3789" type="curve" smooth="yes"/>
      <point x="56.6123" y="19.3799"/>
      <point x="29.8389" y="46.1543"/>
      <point x="29.8389" y="79.1318" type="curve" smooth="yes"/>
      <point x="29.8389" y="112.11"/>
      <point x="56.6123" y="138.884"/>
      <point x="89.5908" y="138.885" type="curve" smooth="yes"/>
      <point x="122.568" y="138.884"/>
      <point x="149.342" y="112.11"/>
    </contour>
  </outline>
</glyph>
<glyph name="xy_semicolon" format="2">
  <advance width="179"/>
  <unicode hex="E086"/>
  <outline>
    <contour>
      <point x="149.326" y="79.1318" type="curve" smooth="yes"/>
      <point x="149.326" y="46.1562"/>
      <point x="122.557" y="19.3838"/>
      <point x="89.582" y="19.3789" type="curve" smooth="yes"/>
      <point x="56.6045" y="19.3799"/>
      <point x="29.8311" y="46.1543"/>
      <point x="29.8311" y="79.1318" type="curve" smooth="yes"/>
      <point x="29.8311" y="112.11"/>
      <point x="56.6045" y="138.884"/>
      <point x="89.582" y="138.885" type="curve" smooth="yes"/>
      <point x="122.557" y="138.88"/>
      <point x="149.326" y="112.107"/>
    </contour>
    <contour>
      <point x="83.749" y="302.225" type="curve" smooth="yes"/>
      <point x="52.041" y="302.225"/>
      <point x="29.9707" y="327.023"/>
      <point x="29.9707" y="350.508" type="curve" smooth="yes"/>
      <point x="29.9707" y="379.434"/>
      <point x="47.3838" y="398.166"/>
      <point x="86.5293" y="405.245" type="curve" smooth="yes"/>
      <point x="95.9678" y="406.953"/>
      <point x="101.456" y="411.42"/>
      <point x="101.456" y="422.757" type="curve" smooth="yes"/>
      <point x="101.456" y="448.339"/>
      <point x="81.0781" y="480.584"/>
      <point x="28.1611" y="511.878" type="curve"/>
      <point x="49.7822" y="537.274" type="line"/>
      <point x="118.796" y="502.35"/>
      <point x="158.941" y="447.681"/>
      <point x="158.941" y="389.438" type="curve" smooth="yes"/>
      <point x="158.941" y="334.668"/>
      <point x="133.458" y="302.225"/>
    </contour>
  </outline>
</glyph>
<glyph name="xy_ellipsis" format="2">
  <advance width="602"/>
  <unicode hex="E088"/>
  <outline>
    <contour>
      <point x="572.42" y="361.979" type="curve" smooth="yes"/>
      <point x="572.42" y="329.001"/>
      <point x="545.646" y="302.227"/>
      <point x="512.669" y="302.226" type="curve" smooth="yes"/>
      <point x="479.694" y="302.23"/>
      <point x="452.925" y="329.003"/>
      <point x="452.925" y="361.979" type="curve" smooth="yes"/>
      <point x="452.925" y="394.954"/>
      <point x="479.694" y="421.727"/>
      <point x="512.669" y="421.731" type="curve" smooth="yes"/>
      <point x="545.646" y="421.73"/>
      <point x="572.42" y="394.957"/>
    </contour>
    <contour>
      <point x="360.877" y="361.979" type="curve" smooth="yes"/>
      <point x="360.877" y="329.003"/>
      <point x="334.107" y="302.23"/>
      <point x="301.133" y="302.226" type="curve" smooth="yes"/>
      <point x="268.155" y="302.227"/>
      <point x="241.382" y="329.001"/>
      <point x="241.382" y="361.979" type="curve" smooth="yes"/>
      <point x="241.382" y="394.957"/>
      <point x="268.155" y="421.73"/>
      <point x="301.133" y="421.731" type="curve" smooth="yes"/>
      <point x="334.107" y="421.727"/>
      <point x="360.877" y="394.954"/>
    </contour>
    <contour>
      <point x="149.342" y="361.979" type="curve" smooth="yes"/>
      <point x="149.342" y="329.001"/>
      <point x="122.567" y="302.227"/>
      <point x="89.5898" y="302.226" type="curve" smooth="yes"/>
      <point x="56.6123" y="302.227"/>
      <point x="29.8389" y="329.001"/>
      <point x="29.8389" y="361.979" type="curve" smooth="yes"/>
      <point x="29.8389" y="394.957"/>
      <point x="56.6123" y="421.73"/>
      <point x="89.5898" y="421.731" type="curve" smooth="yes"/>
      <point x="122.567" y="421.73"/>
      <point x="149.342" y="394.957"/>
    </contour>
  </outline>
</glyph>
<glyph name="xy_kome" format="2">
  <advance width="487"/>
  <unicode hex="E08E"/>
  <outline>
    <contour>
      <point x="375.647" y="203.908" type="curve" smooth="yes"/>
      <point x="375.647" y="227.467"/>
      <point x="394.745" y="246.565"/>
      <point x="418.305" y="246.565" type="curve" smooth="yes"/>
      <point x="441.863" y="246.565"/>
      <point x="460.961" y="227.467"/>
      <point x="460.961" y="203.908" type="curve" smooth="yes"/>
      <point x="460.961" y="180.35"/>
      <point x="441.863" y="161.251"/>
      <point x="418.305" y="161.251" type="curve" smooth="yes"/>
      <point x="394.745" y="161.251"/>
      <point x="375.647" y="180.35"/>
    </contour>
    <contour>
      <point x="28.1152" y="205.973" type="curve" smooth="yes"/>
      <point x="28.1152" y="229.531"/>
      <point x="47.2129" y="248.63"/>
      <point x="70.7725" y="248.63" type="curve" smooth="yes"/>
      <point x="94.3311" y="248.63"/>
      <point x="113.429" y="229.531"/>
      <point x="113.429" y="205.973" type="curve" smooth="yes"/>
      <point x="113.429" y="182.414"/>
      <point x="94.3311" y="163.315"/>
      <point x="70.7725" y="163.315" type="curve" smooth="yes"/>
      <point x="47.2129" y="163.315"/>
      <point x="28.1152" y="182.414"/>
    </contour>
    <contour>
      <point x="203.595" y="40.1211" type="curve" smooth="yes"/>
      <point x="203.595" y="63.6797"/>
      <point x="222.693" y="82.7783"/>
      <point x="246.252" y="82.7783" type="curve" smooth="yes"/>
      <point x="269.812" y="82.7783"/>
      <point x="288.909" y="63.6797"/>
      <point x="288.909" y="40.1211" type="curve" smooth="yes"/>
      <point x="288.909" y="16.5625"/>
      <point x="269.812" y="-2.53613"/>
      <point x="246.252" y="-2.53613" type="curve" smooth="yes"/>
      <point x="222.693" y="-2.53613"/>
      <point x="203.595" y="16.5625"/>
    </contour>
    <contour>
      <point x="215.3" y="380.771" type="curve" smooth="yes"/>
      <point x="215.3" y="404.329"/>
      <point x="234.398" y="423.428"/>
      <point x="257.957" y="423.428" type="curve" smooth="yes"/>
      <point x="281.516" y="423.428"/>
      <point x="300.614" y="404.329"/>
      <point x="300.614" y="380.771" type="curve" smooth="yes"/>
      <point x="300.614" y="357.212"/>
      <point x="281.516" y="338.113"/>
      <point x="257.957" y="338.113" type="curve" smooth="yes"/>
      <point x="234.398" y="338.113"/>
      <point x="215.3" y="357.212"/>
    </contour>
    <contour>
      <point x="398.412" y="402.553" type="line"/>
      <point x="446.098" y="402.553" type="line"/>
      <point x="286.488" y="212.849" type="line"/>
      <point x="465.567" y="0" type="line"/>
      <point x="386.735" y="0" type="line"/>
      <point x="239.288" y="175.251" type="line"/>
      <point x="91.8418" y="0" type="line"/>
      <point x="44.1553" y="0" type="line"/>
      <point x="215.445" y="203.59" type="line"/>
      <point x="48.0488" y="402.553" type="line"/>
      <point x="126.881" y="402.553" type="line"/>
      <point x="262.646" y="241.186" type="line"/>
    </contour>
  </outline>
</glyph>
<glyph name="xy_lentright" format="2">
  <advance width="299"/>
  <unicode hex="E090"/>
  <outline>
    <contour>
      <point x="219.716" y="590.664" type="line"/>
      <point x="219.716" y="393.777"/>
      <point x="219.716" y="196.889"/>
      <point x="219.716" y="0.00195312" type="curve"/>
      <point x="27.1025" y="0.00195312" type="line"/>
      <point x="27.1025" y="15.9844" type="line"/>
      <point x="87.251" y="44.8701"/>
      <point x="138.432" y="150.921"/>
      <point x="138.432" y="295.333" type="curve" smooth="yes"/>
      <point x="138.432" y="439.745"/>
      <point x="87.251" y="545.796"/>
      <point x="27.1025" y="574.682" type="curve"/>
      <point x="27.1025" y="590.664" type="line"/>
    </contour>
  </outline>
</glyph>
<glyph name="xy_lentwhiteleft" format="2">
  <advance width="349"/>
  <unicode hex="E091"/>
  <outline>
    <contour>
      <point x="106.371" y="577.038" type="line"/>
      <point x="106.371" y="389.235"/>
      <point x="106.371" y="201.433"/>
      <point x="106.371" y="13.6299" type="curve"/>
      <point x="286.927" y="13.6299" type="line"/>
      <point x="224.601" y="54.8203"/>
      <point x="168.196" y="158.343"/>
      <point x="168.196" y="295.326" type="curve" smooth="yes"/>
      <point x="168.196" y="432.311"/>
      <point x="224.601" y="535.847"/>
      <point x="286.927" y="577.038" type="curve"/>
    </contour>
    <contour>
      <point x="195.438" y="295.326" type="curve" smooth="yes"/>
      <point x="195.438" y="195.432"/>
      <point x="234.689" y="66.8612"/>
      <point x="322.343" y="24.5498" type="curve"/>
      <point x="322.343" y="-13.6279" type="line"/>
      <point x="79.1143" y="-13.6279" type="line"/>
      <point x="79.1143" y="604.295" type="line"/>
      <point x="322.343" y="604.295" type="line"/>
      <point x="322.343" y="566.117" type="line"/>
      <point x="234.733" y="523.838"/>
      <point x="195.438" y="395.287"/>
    </contour>
  </outline>
</glyph>
<glyph name="xy_lentwhiteright" format="2">
  <advance width="349"/>
  <unicode hex="E092"/>
  <outline>
    <contour>
      <point x="243.081" y="577.038" type="curve"/>
      <point x="62.5254" y="577.038" type="line"/>
      <point x="124.852" y="535.847"/>
      <point x="181.255" y="432.311"/>
      <point x="181.255" y="295.326" type="curve" smooth="yes"/>
      <point x="181.255" y="158.343"/>
      <point x="124.852" y="54.8203"/>
      <point x="62.5254" y="13.6299" type="curve"/>
      <point x="243.081" y="13.6299" type="line"/>
      <point x="243.081" y="201.433"/>
      <point x="243.081" y="389.235"/>
    </contour>
    <contour>
      <point x="154.014" y="295.326" type="curve" smooth="yes"/>
      <point x="154.014" y="395.566"/>
      <point x="114.546" y="523.964"/>
      <point x="27.1094" y="566.117" type="curve"/>
      <point x="27.1094" y="604.295" type="line"/>
      <point x="270.346" y="604.295" type="line"/>
      <point x="270.346" y="-13.6279" type="line"/>
      <point x="27.1094" y="-13.6279" type="line"/>
      <point x="27.1094" y="24.5498" type="line"/>
      <point x="114.621" y="66.75"/>
      <point x="154.014" y="195.212"/>
    </contour>
  </outline>
</glyph>
<glyph name="xy_kagileft" format="2">
  <advance width="328"/>
  <unicode hex="E093"/>
  <outline>
    <contour>
      <point x="79.1123" y="588.718" type="line"/>
      <point x="308.612" y="588.718" type="line"/>
      <point x="308.612" y="528.709" type="line"/>
      <point x="152.196" y="528.709" type="line"/>
      <point x="152.196" y="101.833" type="line"/>
      <point x="79.1123" y="101.833" type="line"/>
    </contour>
  </outline>
</glyph>
<glyph name="xy_kagiright" format="2">
  <advance width="422"/>
  <unicode hex="E094"/>
  <outline>
    <contour>
      <point x="176.018" y="60.0078" type="line"/>
      <point x="176.018" y="486.884" type="line"/>
      <point x="249.102" y="486.884" type="line"/>
      <point x="249.102" y="-0.000976562" type="line"/>
      <point x="19.5947" y="-0.000976562" type="line"/>
      <point x="19.5947" y="60.0078" type="line"/>
    </contour>
  </outline>
</glyph>
<glyph name="xy_kagiwhiteleft" format="2">
  <advance width="383"/>
  <unicode hex="E095"/>
  <outline>
    <contour>
      <point x="106.363" y="586.779" type="line"/>
      <point x="106.363" y="103.778" type="line"/>
      <point x="175.576" y="103.778" type="line"/>
      <point x="175.576" y="530.642" type="line"/>
      <point x="331.98" y="530.642" type="line"/>
      <point x="331.98" y="586.779" type="line"/>
    </contour>
    <contour>
      <point x="79.1074" y="614.022" type="curve"/>
      <point x="359.237" y="614.022" type="line"/>
      <point x="359.237" y="503.398" type="line"/>
      <point x="202.825" y="503.398" type="line"/>
      <point x="202.825" y="76.5352" type="line"/>
      <point x="79.1074" y="76.5352" type="line"/>
      <point x="79.1074" y="255.698"/>
      <point x="79.1074" y="434.86"/>
    </contour>
  </outline>
</glyph>
<glyph name="xy_kagiwhiteright" format="2">
  <advance width="383"/>
  <unicode hex="E096"/>
  <outline>
    <contour>
      <point x="207.151" y="484.949" type="line"/>
      <point x="207.151" y="58.0723" type="line"/>
      <point x="50.7324" y="58.0723" type="line"/>
      <point x="50.7324" y="1.94824" type="line"/>
      <point x="276.349" y="1.94824" type="line"/>
      <point x="276.349" y="484.949" type="line"/>
    </contour>
    <contour>
      <point x="179.909" y="512.192" type="curve"/>
      <point x="303.605" y="512.192" type="line"/>
      <point x="303.605" y="-25.2949" type="line"/>
      <point x="23.4756" y="-25.2949" type="line"/>
      <point x="23.4756" y="85.3145" type="line"/>
      <point x="179.909" y="85.3145" type="line"/>
      <point x="179.909" y="227.607"/>
      <point x="179.909" y="369.9"/>
    </contour>
  </outline>
</glyph>
<glyph name="xy_kikkoright" format="2">
  <advance width="323"/>
  <unicode hex="E098"/>
  <outline>
    <contour>
      <point x="70.2354" y="600.188" type="line"/>
      <point x="244.148" y="520.5" type="line"/>
      <point x="244.148" y="72.124" type="line"/>
      <point x="70.2354" y="-7.58594" type="line"/>
      <point x="46.8555" y="31.2861" type="line"/>
      <point x="194.373" y="102.017" type="line"/>
      <point x="194.373" y="490.588" type="line"/>
      <point x="46.8555" y="561.319" type="line"/>
    </contour>
  </outline>
</glyph>
<glyph name="xy_kikkowhiteright" format="2">
  <advance width="358"/>
  <unicode hex="E09A"/>
  <outline>
    <contour>
      <point x="70.1104" y="632.587" type="line"/>
      <point x="279.328" y="536.748" type="line"/>
      <point x="279.328" y="55.873" type="line"/>
      <point x="70.125" y="-40.0088" type="line"/>
      <point x="20.709" y="42.1084" type="line"/>
      <point x="178.953" y="117.917" type="line"/>
      <point x="178.953" y="474.676" type="line"/>
      <point x="20.709" y="550.499" type="line"/>
    </contour>
    <contour>
      <point x="80.9023" y="597.686" type="line"/>
      <point x="59.5088" y="562.123" type="line"/>
      <point x="206.21" y="491.832" type="line"/>
      <point x="206.21" y="100.761" type="line"/>
      <point x="59.5088" y="30.4844" type="line"/>
      <point x="80.9023" y="-5.09277" type="line"/>
      <point x="252.086" y="73.374" type="line"/>
      <point x="252.086" y="519.247" type="line"/>
    </contour>
  </outline>
</glyph>
<glyph name="xy_yamadblleft" format="2">
  <advance width="363"/>
  <unicode hex="E09D"/>
  <outline>
    <contour>
      <point x="142.339" y="294.359" type="line"/>
      <point x="286.84" y="588.718" type="line"/>
      <point x="340.515" y="588.718" type="line"/>
      <point x="196.014" y="294.359" type="line"/>
      <point x="340.515" y="0" type="line"/>
      <point x="286.84" y="0" type="line"/>
    </contour>
    <contour>
      <point x="39.1748" y="294.359" type="line"/>
      <point x="183.676" y="588.718" type="line"/>
      <point x="237.351" y="588.718" type="line"/>
      <point x="92.8496" y="294.359" type="line"/>
      <point x="237.351" y="0" type="line"/>
      <point x="183.676" y="0" type="line"/>
    </contour>
  </outline>
</glyph>
<glyph name="xy_yamadblright" format="2">
  <advance width="363"/>
  <unicode hex="E09E"/>
  <outline>
    <contour>
      <point x="220.695" y="294.359" type="line"/>
      <point x="76.1943" y="0" type="line"/>
      <point x="22.5195" y="0" type="line"/>
      <point x="167.021" y="294.359" type="line"/>
      <point x="22.5195" y="588.718" type="line"/>
      <point x="76.1943" y="588.718" type="line"/>
    </contour>
    <contour>
      <point x="323.858" y="294.359" type="line"/>
      <point x="179.357" y="0" type="line"/>
      <point x="125.683" y="0" type="line"/>
      <point x="270.184" y="294.359" type="line"/>
      <point x="125.683" y="588.718" type="line"/>
      <point x="179.357" y="588.718" type="line"/>
    </contour>
  </outline>
</glyph>
<glyph name="xy_zero" format="2">
  <advance width="195"/>
  <unicode hex="E114"/>
  <outline>
    <contour>
      <point x="120.312" y="151.104" type="curve" smooth="yes"/>
      <point x="91.3222" y="151.104"/>
      <point x="82.955" y="178.866"/>
      <point x="73.5967" y="209.917" type="curve" smooth="yes"/>
      <point x="64.5742" y="239.853"/>
      <point x="54.6306" y="272.846"/>
      <point x="24.3955" y="286.963" type="curve"/>
      <point x="24.5645" y="295.261" type="line"/>
      <point x="27.9711" y="295.388"/>
      <point x="31.3437" y="295.451"/>
      <point x="34.679" y="295.451" type="curve" smooth="yes"/>
      <point x="110.03" y="295.451"/>
      <point x="166.321" y="263.122"/>
      <point x="166.321" y="206.892" type="curve" smooth="yes"/>
      <point x="166.321" y="169.467"/>
      <point x="141.758" y="151.104"/>
    </contour>
  </outline>
</glyph>
<glyph name="xy_two" format="2">
  <advance width="394"/>
  <unicode hex="E116"/>
  <outline>
    <contour>
      <point x="139.837" y="293.78" type="curve" smooth="yes"/>
      <point x="139.837" y="222.391"/>
      <point x="144.515" y="116.417"/>
      <point x="145.812" y="87.0387" type="curve" smooth="yes"/>
      <point x="146.02" y="82.3111"/>
      <point x="146.142" y="79.567"/>
      <point x="146.142" y="79.2695" type="curve" smooth="yes"/>
      <point x="146.142" y="43.1016"/>
      <point x="128.14" y="-17.4199"/>
      <point x="106.806" y="-17.4199" type="curve" smooth="yes"/>
      <point x="74.7158" y="-17.4199"/>
      <point x="49.3643" y="62.8252"/>
      <point x="49.3643" y="82.085" type="curve" smooth="yes"/>
      <point x="49.3643" y="88.3055"/>
      <point x="50.6599" y="93.084"/>
      <point x="52.5849" y="100.184" type="curve" smooth="yes"/>
      <point x="58.1469" y="120.698"/>
      <point x="68.9629" y="160.59"/>
      <point x="68.9629" y="310.628" type="curve" smooth="yes"/>
      <point x="68.9629" y="392.558"/>
      <point x="41.6431" y="399.366"/>
      <point x="6.65039" y="408.086" type="curve"/>
      <point x="12.7062" y="415.78"/>
      <point x="24.6321" y="418.878"/>
      <point x="39.1778" y="418.878" type="curve" smooth="yes"/>
      <point x="82.8435" y="418.878"/>
      <point x="150.118" y="390.958"/>
      <point x="153.068" y="375.638" type="curve"/>
      <point x="200.228" y="378.66"/>
      <point x="269.594" y="407.079"/>
      <point x="285.928" y="423.415" type="curve" smooth="yes"/>
      <point x="290.268" y="427.755"/>
      <point x="294.608" y="429.108"/>
      <point x="296.845" y="429.108" type="curve" smooth="yes"/>
      <point x="304.702" y="429.108"/>
      <point x="384.949" y="406.167"/>
      <point x="384.949" y="382.629" type="curve" smooth="yes"/>
      <point x="384.949" y="344.046"/>
      <point x="247.724" y="330.616"/>
      <point x="207.659" y="330.616" type="curve" smooth="yes"/>
      <point x="184.262" y="330.616"/>
      <point x="165.077" y="333.983"/>
      <point x="146.738" y="340.693" type="curve"/>
      <point x="143.328" y="325.289"/>
      <point x="139.837" y="307.868"/>
    </contour>
  </outline>
</glyph>
<glyph name="xy_three" format="2">
  <advance width="586"/>
  <unicode hex="E117"/>
  <outline>
    <contour>
      <point x="448.737" y="73.6596" type="curve" smooth="yes"/>
      <point x="469.175" y="73.6596"/>
      <point x="480.383" y="76.0355"/>
      <point x="488.023" y="77.655" type="curve" smooth="yes"/>
      <point x="491.972" y="78.4922"/>
      <point x="494.968" y="79.1272"/>
      <point x="497.792" y="79.1272" type="curve" smooth="yes"/>
      <point x="522.209" y="79.1272"/>
      <point x="590.981" y="43.2987"/>
      <point x="590.981" y="16.2314" type="curve" smooth="yes"/>
      <point x="590.981" y="-4.32715"/>
      <point x="561.165" y="-16.4785"/>
      <point x="516.193" y="-16.4785" type="curve" smooth="yes"/>
      <point x="438.55" y="-16.4785"/>
      <point x="348.489" y="4.69336"/>
      <point x="290.194" y="25.4814" type="curve"/>
      <point x="182.322" y="-6.18359"/>
      <point x="135.864" y="-17.4707"/>
      <point x="121.07" y="-17.4707" type="curve" smooth="yes"/>
      <point x="69.4694" y="-17.4707"/>
      <point x="11.1944" y="59.9946"/>
      <point x="11.1944" y="98.0124" type="curve" smooth="yes"/>
      <point x="11.1944" y="105.573"/>
      <point x="13.4993" y="111.574"/>
      <point x="18.6201" y="115.095" type="curve"/>
      <point x="31.2609" y="83.1142"/>
      <point x="46.6757" y="63.8338"/>
      <point x="160.586" y="63.8338" type="curve" smooth="yes"/>
      <point x="174.857" y="63.8338"/>
      <point x="187.933" y="64.5131"/>
      <point x="201.729" y="66.0449" type="curve"/>
      <point x="134.879" y="110.804"/>
      <point x="101.067" y="176.228"/>
      <point x="101.067" y="242.98" type="curve" smooth="yes"/>
      <point x="101.067" y="354.633"/>
      <point x="190.209" y="433.297"/>
      <point x="297.065" y="433.297" type="curve" smooth="yes"/>
      <point x="403.657" y="433.297"/>
      <point x="494.881" y="349.814"/>
      <point x="494.881" y="240.068" type="curve" smooth="yes"/>
      <point x="494.881" y="177.529"/>
      <point x="467.558" y="120.317"/>
      <point x="409.527" y="75.6143" type="curve"/>
      <point x="425.995" y="74.1783"/>
      <point x="438.751" y="73.6596"/>
    </contour>
    <contour>
      <point x="276.481" y="381.981" type="curve" smooth="yes"/>
      <point x="206.401" y="381.981"/>
      <point x="147.105" y="321.596"/>
      <point x="147.105" y="247.55" type="curve" smooth="yes"/>
      <point x="147.105" y="158.033"/>
      <point x="219.444" y="97.5195"/>
      <point x="284.846" y="97.5195" type="curve" smooth="yes"/>
      <point x="344.671" y="97.5195"/>
      <point x="404.577" y="143.848"/>
      <point x="404.577" y="235.267" type="curve" smooth="yes"/>
      <point x="404.577" y="315.104"/>
      <point x="355.684" y="381.981"/>
    </contour>
  </outline>
</glyph>
<glyph name="xy_seven" format="2">
  <advance width="443"/>
  <unicode hex="E11B"/>
  <outline>
    <contour>
      <point x="443.428" y="375.783" type="curve" smooth="yes"/>
      <point x="443.428" y="347.444"/>
      <point x="367.462" y="339.941"/>
      <point x="307.772" y="334.045" type="curve"/>
      <point x="335.36" y="303.674"/>
      <point x="358.582" y="266.142"/>
      <point x="358.582" y="249.635" type="curve" smooth="yes"/>
      <point x="358.582" y="243.573"/>
      <point x="356.153" y="240.134"/>
      <point x="349.532" y="230.76" type="curve" smooth="yes"/>
      <point x="344.62" y="223.805"/>
      <point x="337.401" y="213.583"/>
      <point x="327.154" y="196.6" type="curve" smooth="yes"/>
      <point x="281.939" y="121.669"/>
      <point x="179.637" y="25.3877"/>
      <point x="53.8662" y="-19.793" type="curve"/>
      <point x="44.0596" y="-3.83594" type="line"/>
      <point x="169.565" y="76.2627"/>
      <point x="266.784" y="250.476"/>
      <point x="266.784" y="315.749" type="curve" smooth="yes"/>
      <point x="266.784" y="321.074"/>
      <point x="266.173" y="326.005"/>
      <point x="265.074" y="330.608" type="curve"/>
      <point x="239.479" y="329.008"/>
      <point x="211.665" y="328.075"/>
      <point x="181.079" y="328.075" type="curve" smooth="yes"/>
      <point x="94.46" y="328.075"/>
      <point x="52.6885" y="358.343"/>
      <point x="11.0352" y="419.742" type="curve"/>
      <point x="25.8887" y="428.179" type="line"/>
      <point x="67.3213" y="392.128"/>
      <point x="84.5293" y="383.218"/>
      <point x="137.012" y="383.218" type="curve" smooth="yes"/>
      <point x="218.649" y="383.218"/>
      <point x="316.538" y="404.681"/>
      <point x="348.334" y="426.576" type="curve" smooth="yes"/>
      <point x="354.903" y="431.097"/>
      <point x="356.993" y="431.772"/>
      <point x="360.62" y="431.772" type="curve" smooth="yes"/>
      <point x="375.341" y="431.772"/>
      <point x="443.428" y="405.111"/>
    </contour>
  </outline>
</glyph>
<glyph name="xy_eight" format="2">
  <advance width="474"/>
  <unicode hex="E11C"/>
  <outline>
    <contour>
      <point x="266.495" y="363.935" type="curve"/>
      <point x="207.926" y="354.492"/>
      <point x="182.383" y="339.925"/>
      <point x="165.522" y="330.309" type="curve" smooth="yes"/>
      <point x="155.37" y="324.52"/>
      <point x="148.366" y="320.525"/>
      <point x="139.196" y="320.525" type="curve" smooth="yes"/>
      <point x="103.562" y="320.525"/>
      <point x="42.8943" y="390.321"/>
      <point x="42.8943" y="426.854" type="curve" smooth="yes"/>
      <point x="42.8943" y="432.287"/>
      <point x="44.2357" y="436.984"/>
      <point x="47.2002" y="440.606" type="curve"/>
      <point x="72.3086" y="406.541"/>
      <point x="83.5791" y="394.388"/>
      <point x="139.057" y="394.388" type="curve" smooth="yes"/>
      <point x="141.074" y="394.388"/>
      <point x="296.378" y="399.218"/>
      <point x="339.381" y="418.211" type="curve" smooth="yes"/>
      <point x="350.757" y="423.236"/>
      <point x="353.027" y="424.238"/>
      <point x="357.831" y="424.238" type="curve" smooth="yes"/>
      <point x="374.729" y="424.238"/>
      <point x="433.863" y="380.668"/>
      <point x="433.863" y="355.934" type="curve" smooth="yes"/>
      <point x="433.863" y="350.62"/>
      <point x="431.79" y="347.903"/>
      <point x="428.841" y="344.037" type="curve" smooth="yes"/>
      <point x="421.568" y="334.507"/>
      <point x="408.968" y="317.993"/>
      <point x="408.968" y="238.364" type="curve" smooth="yes"/>
      <point x="408.968" y="156.69"/>
      <point x="415.442" y="83.9602"/>
      <point x="417.009" y="66.3533" type="curve" smooth="yes"/>
      <point x="417.225" y="63.9286"/>
      <point x="417.348" y="62.5493"/>
      <point x="417.348" y="62.3359" type="curve" smooth="yes"/>
      <point x="417.348" y="25.4873"/>
      <point x="402.59" y="-23.8271"/>
      <point x="378.504" y="-23.8271" type="curve" smooth="yes"/>
      <point x="352.579" y="-23.8271"/>
      <point x="323.24" y="33.8545"/>
      <point x="323.24" y="73.0586" type="curve" smooth="yes"/>
      <point x="323.24" y="76.5238"/>
      <point x="324.335" y="80.0685"/>
      <point x="326.019" y="85.5234" type="curve" smooth="yes"/>
      <point x="331.64" y="103.73"/>
      <point x="343.831" y="143.218"/>
      <point x="343.831" y="272.066" type="curve" smooth="yes"/>
      <point x="343.831" y="282.814"/>
      <point x="343.821" y="292.691"/>
      <point x="343.805" y="301.698" type="curve"/>
      <point x="343.785" y="301.67"/>
      <point x="343.572" y="301.373"/>
      <point x="343.209" y="300.865" type="curve" smooth="yes"/>
      <point x="340.65" y="297.287"/>
      <point x="330.613" y="283.252"/>
      <point x="327.478" y="278.992" type="curve" smooth="yes"/>
      <point x="259.994" y="187.302"/>
      <point x="145.898" y="103.511"/>
      <point x="24.3428" y="66.6611" type="curve"/>
      <point x="16.2656" y="80.9658" type="line"/>
      <point x="161.745" y="164.194"/>
      <point x="266.497" y="311.538"/>
      <point x="266.497" y="363.604" type="curve" smooth="yes"/>
      <point x="266.497" y="363.658"/>
      <point x="266.497" y="363.713"/>
      <point x="266.496" y="363.768" type="curve" smooth="yes"/>
      <point x="266.496" y="363.823"/>
      <point x="266.495" y="363.879"/>
    </contour>
  </outline>
</glyph>
<glyph name="xy_nine" format="2">
  <advance width="528"/>
  <unicode hex="E11D"/>
  <outline>
    <contour>
      <point x="34.3271" y="183.366" type="curve" smooth="yes"/>
      <point x="34.3271" y="226.102"/>
      <point x="46.572" y="267.392"/>
      <point x="56.4047" y="300.549" type="curve" smooth="yes"/>
      <point x="63.0011" y="322.792"/>
      <point x="68.5119" y="341.375"/>
      <point x="68.5119" y="354.278" type="curve" smooth="yes"/>
      <point x="68.5119" y="374.148"/>
      <point x="58.2176" y="385.539"/>
      <point x="34.54" y="401.131" type="curve"/>
      <point x="39.6016" y="404.158"/>
      <point x="46.333" y="405.525"/>
      <point x="53.4834" y="405.525" type="curve" smooth="yes"/>
      <point x="90.5693" y="405.525"/>
      <point x="166.542" y="348.79"/>
      <point x="166.542" y="317.089" type="curve" smooth="yes"/>
      <point x="166.542" y="308.716"/>
      <point x="160.855" y="301.522"/>
      <point x="144.457" y="289.148" type="curve" smooth="yes"/>
      <point x="112.875" y="265.315"/>
      <point x="79.3496" y="211.026"/>
      <point x="79.3496" y="153.08" type="curve" smooth="yes"/>
      <point x="79.3496" y="86.248"/>
      <point x="120.048" y="43.7969"/>
      <point x="220.335" y="43.7969" type="curve" smooth="yes"/>
      <point x="222.111" y="43.7969"/>
      <point x="223.875" y="43.8085"/>
      <point x="225.626" y="43.8315" type="curve" smooth="yes"/>
      <point x="224.844" y="137.946"/>
      <point x="220.688" y="227.157"/>
      <point x="216.546" y="274.205" type="curve" smooth="yes"/>
      <point x="212.507" y="320.091"/>
      <point x="200.479" y="343.895"/>
      <point x="177.312" y="358.977" type="curve"/>
      <point x="181.53" y="362.54"/>
      <point x="187.306" y="364.105"/>
      <point x="194.094" y="364.105" type="curve" smooth="yes"/>
      <point x="233.824" y="364.105"/>
      <point x="308.255" y="310.514"/>
      <point x="308.255" y="290.495" type="curve" smooth="yes"/>
      <point x="308.255" y="285.265"/>
      <point x="307.494" y="282.955"/>
      <point x="306.182" y="278.971" type="curve" smooth="yes"/>
      <point x="302.062" y="266.459"/>
      <point x="292.507" y="237.441"/>
      <point x="284.027" y="49.5801" type="curve"/>
      <point x="380.351" y="68.6111"/>
      <point x="422.844" y="132.442"/>
      <point x="422.844" y="208.577" type="curve" smooth="yes"/>
      <point x="422.844" y="292.922"/>
      <point x="390.217" y="349.597"/>
      <point x="322.667" y="392.986" type="curve"/>
      <point x="331.325" y="409.523" type="line"/>
      <point x="424.462" y="373.118"/>
      <point x="504.856" y="299.477"/>
      <point x="504.856" y="189.805" type="curve" smooth="yes"/>
      <point x="504.856" y="68.4521"/>
      <point x="406.975" y="-24.3096"/>
      <point x="256.787" y="-24.3096" type="curve" smooth="yes"/>
      <point x="107.77" y="-24.3096"/>
      <point x="34.3271" y="70.0791"/>
    </contour>
  </outline>
</glyph>
<glyph name="zero.lining" format="2">
  <advance width="493"/>
  <unicode hex="E200"/>
  <outline>
    <contour>
      <point x="246.26" y="569.815" type="curve" smooth="yes"/>
      <point x="157.53" y="569.815"/>
      <point x="110.314" y="474.49"/>
      <point x="110.314" y="294.99" type="curve" smooth="yes"/>
      <point x="110.314" y="115.491"/>
      <point x="156.493" y="18.1436"/>
      <point x="245.333" y="18.1436" type="curve" smooth="yes"/>
      <point x="334.173" y="18.1436"/>
      <point x="381.55" y="115.317"/>
      <point x="381.55" y="295.686" type="curve" smooth="yes"/>
      <point x="381.55" y="476.054"/>
      <point x="334.989" y="569.815"/>
    </contour>
    <contour>
      <point x="246.554" y="598.039" type="curve" smooth="yes"/>
      <point x="389.599" y="598.039"/>
      <point x="468.359" y="475.82"/>
      <point x="468.359" y="295.048" type="curve" smooth="yes"/>
      <point x="468.359" y="114.274"/>
      <point x="380.498" y="-8.13379"/>
      <point x="245.2" y="-8.13379" type="curve" smooth="yes"/>
      <point x="109.902" y="-8.13379"/>
      <point x="24.4463" y="110.349"/>
      <point x="24.4463" y="294.382" type="curve" smooth="yes"/>
      <point x="24.4463" y="478.415"/>
      <point x="103.51" y="598.039"/>
    </contour>
  </outline>
</glyph>
<glyph name="six.lining" format="2">
  <advance width="492"/>
  <unicode hex="E206"/>
  <outline>
    <contour>
      <point x="250.408" y="-9.27441" type="curve" smooth="yes"/>
      <point x="153.84" y="-9.27441"/>
      <point x="50.7966" y="82.2517"/>
      <point x="50.7966" y="237.407" type="curve" smooth="yes"/>
      <point x="50.7966" y="434.667"/>
      <point x="202.894" y="573.933"/>
      <point x="407.747" y="598.039" type="curve"/>
      <point x="407.747" y="578.573" type="line"/>
      <point x="354.548" y="572.051"/>
      <point x="156.13" y="530.256"/>
      <point x="142.218" y="269.125" type="curve"/>
      <point x="192.297" y="311.775"/>
      <point x="246.535" y="333.449"/>
      <point x="304.716" y="333.449" type="curve" smooth="yes"/>
      <point x="377.769" y="333.449"/>
      <point x="448.099" y="278.079"/>
      <point x="448.099" y="175.721" type="curve" smooth="yes"/>
      <point x="448.099" y="58.9326"/>
      <point x="350.651" y="-9.27441"/>
    </contour>
    <contour>
      <point x="141.523" y="226.648" type="curve"/>
      <point x="143.98" y="102.434"/>
      <point x="198" y="19.7559"/>
      <point x="261.539" y="19.7559" type="curve"/>
      <point x="321.254" y="19.7559"/>
      <point x="366.351" y="75.4775"/>
      <point x="366.351" y="156.255" type="curve" smooth="yes"/>
      <point x="366.351" y="231.966"/>
      <point x="325.587" y="277.93"/>
      <point x="259.392" y="277.93" type="curve" smooth="yes"/>
      <point x="224.839" y="277.93"/>
      <point x="184.11" y="262.486"/>
    </contour>
  </outline>
</glyph>
<glyph name="eight.lining" format="2">
  <advance width="487"/>
  <unicode hex="E208"/>
  <outline>
    <contour>
      <point x="252.571" y="596.289" type="curve" smooth="yes"/>
      <point x="351.88" y="596.289"/>
      <point x="407.96" y="542.647"/>
      <point x="407.96" y="476.537" type="curve" smooth="yes"/>
      <point x="407.96" y="417.985"/>
      <point x="365.495" y="375.314"/>
      <point x="309.3" y="336.531" type="curve"/>
      <point x="329.772" y="326.992" type="line" smooth="yes"/>
      <point x="408.99" y="290.081"/>
      <point x="440.653" y="239.199"/>
      <point x="440.653" y="169.868" type="curve" smooth="yes"/>
      <point x="440.653" y="79.3623"/>
      <point x="368.94" y="-8.13379"/>
      <point x="244.016" y="-8.13379" type="curve" smooth="yes"/>
      <point x="135.092" y="-8.13379"/>
      <point x="60.5312" y="59.624"/>
      <point x="60.5312" y="144.782" type="curve" smooth="yes"/>
      <point x="60.5312" y="225.542"/>
      <point x="111.351" y="277.751"/>
      <point x="187.669" y="306.946" type="curve"/>
      <point x="175.642" y="312.811" type="line" smooth="yes"/>
      <point x="115.891" y="341.947"/>
      <point x="74.1777" y="379.118"/>
      <point x="74.1777" y="449.719" type="curve" smooth="yes"/>
      <point x="74.1777" y="532.949"/>
      <point x="156.617" y="596.289"/>
    </contour>
    <contour>
      <point x="211.658" y="295.249" type="line"/>
      <point x="158.007" y="258.759"/>
      <point x="134.827" y="211.459"/>
      <point x="134.827" y="153.717" type="curve" smooth="yes"/>
      <point x="134.827" y="73.8789"/>
      <point x="188.862" y="17.7285"/>
      <point x="254.609" y="17.7285" type="curve" smooth="yes"/>
      <point x="319.819" y="17.7285"/>
      <point x="368.168" y="65.1035"/>
      <point x="368.168" y="139.154" type="curve" smooth="yes"/>
      <point x="368.168" y="191.978"/>
      <point x="344.428" y="230.512"/>
      <point x="287.405" y="258.315" type="curve" smooth="yes"/>
    </contour>
    <contour>
      <point x="283.229" y="348.677" type="line"/>
      <point x="323.319" y="386.9"/>
      <point x="338.646" y="420.625"/>
      <point x="338.646" y="463.079" type="curve" smooth="yes"/>
      <point x="338.646" y="529.112"/>
      <point x="296.683" y="574.382"/>
      <point x="239.271" y="574.382" type="curve" smooth="yes"/>
      <point x="182.123" y="574.382"/>
      <point x="143.795" y="533.376"/>
      <point x="143.795" y="478.938" type="curve" smooth="yes"/>
      <point x="143.795" y="434.609"/>
      <point x="163.474" y="404.474"/>
      <point x="223.13" y="376.678" type="curve" smooth="yes"/>
    </contour>
  </outline>
</glyph>
<glyph name="nine.lining" format="2">
  <advance width="485"/>
  <unicode hex="E209"/>
  <outline>
    <contour>
      <point x="234.423" y="598.039" type="curve" smooth="yes"/>
      <point x="330.991" y="598.039"/>
      <point x="434.034" y="506.513"/>
      <point x="434.034" y="351.358" type="curve" smooth="yes"/>
      <point x="434.034" y="154.099"/>
      <point x="281.938" y="14.8319"/>
      <point x="77.084" y="-9.27441" type="curve"/>
      <point x="77.084" y="10.1914" type="line"/>
      <point x="132.23" y="16.9518"/>
      <point x="334.514" y="60.2311"/>
      <point x="343.122" y="331.638" type="curve"/>
      <point x="299.644" y="275.763"/>
      <point x="235.424" y="258.173"/>
      <point x="194.52" y="258.173" type="curve" smooth="yes"/>
      <point x="115.016" y="258.173"/>
      <point x="43.5742" y="325.893"/>
      <point x="43.5742" y="418.367" type="curve" smooth="yes"/>
      <point x="43.5742" y="535.155"/>
      <point x="134.18" y="598.039"/>
    </contour>
    <contour>
      <point x="343.125" y="369.127" type="curve"/>
      <point x="339.214" y="489.432"/>
      <point x="296.513" y="569.01"/>
      <point x="223.292" y="569.01" type="curve" smooth="yes"/>
      <point x="163.577" y="569.01"/>
      <point x="125.322" y="518.609"/>
      <point x="125.322" y="437.833" type="curve" smooth="yes"/>
      <point x="125.322" y="365.163"/>
      <point x="173.648" y="308.854"/>
      <point x="230.17" y="308.854" type="curve" smooth="yes"/>
      <point x="266.403" y="308.854"/>
      <point x="302.569" y="328.399"/>
    </contour>
  </outline>
</glyph>
<glyph name="K_K" format="2">
  <advance width="380"/>
  <unicode hex="E20A"/>
  <outline>
    <contour>
      <point x="325.477" y="432.688" type="curve"/>
      <point x="325.477" y="8.24707" type="line"/>
      <point x="303.745" y="-3.48535"/>
      <point x="271.302" y="-15.0322"/>
      <point x="244.214" y="-20.7891" type="curve"/>
      <point x="244.214" y="365.452" type="line"/>
      <point x="208.203" y="405.754" type="line"/>
      <point x="239.381" y="415.484"/>
      <point x="292.408" y="428.172"/>
    </contour>
    <contour>
      <point x="371.827" y="547.457" type="curve" smooth="yes"/>
      <point x="371.827" y="519.756"/>
      <point x="349.373" y="497.299"/>
      <point x="321.669" y="497.299" type="curve" smooth="yes"/>
      <point x="293.969" y="497.299"/>
      <point x="271.511" y="519.756"/>
      <point x="271.511" y="547.457" type="curve" smooth="yes"/>
      <point x="271.511" y="575.159"/>
      <point x="293.969" y="597.616"/>
      <point x="321.669" y="597.616" type="curve" smooth="yes"/>
      <point x="349.373" y="597.616"/>
      <point x="371.827" y="575.159"/>
    </contour>
    <contour>
      <point x="240.051" y="547.457" type="curve" smooth="yes"/>
      <point x="240.051" y="519.756"/>
      <point x="217.589" y="497.299"/>
      <point x="189.893" y="497.299" type="curve" smooth="yes"/>
      <point x="162.189" y="497.299"/>
      <point x="139.735" y="519.756"/>
      <point x="139.735" y="547.457" type="curve" smooth="yes"/>
      <point x="139.735" y="575.159"/>
      <point x="162.189" y="597.616"/>
      <point x="189.893" y="597.616" type="curve" smooth="yes"/>
      <point x="217.589" y="597.616"/>
      <point x="240.051" y="575.159"/>
    </contour>
    <contour>
      <point x="135.58" y="432.688" type="curve"/>
      <point x="135.58" y="8.24707" type="line"/>
      <point x="113.848" y="-3.48535"/>
      <point x="81.4053" y="-15.0322"/>
      <point x="54.3174" y="-20.7891" type="curve"/>
      <point x="54.3174" y="365.452" type="line"/>
      <point x="18.3066" y="405.754" type="line"/>
      <point x="49.4844" y="415.484"/>
      <point x="102.512" y="428.172"/>
    </contour>
    <contour>
      <point x="108.277" y="547.457" type="curve" smooth="yes"/>
      <point x="108.277" y="519.756"/>
      <point x="85.8145" y="497.299"/>
      <point x="58.1182" y="497.299" type="curve" smooth="yes"/>
      <point x="30.415" y="497.299"/>
      <point x="7.96094" y="519.756"/>
      <point x="7.96094" y="547.457" type="curve" smooth="yes"/>
      <point x="7.96094" y="575.159"/>
      <point x="30.415" y="597.616"/>
      <point x="58.1182" y="597.616" type="curve" smooth="yes"/>
      <point x="85.8145" y="597.616"/>
      <point x="108.277" y="575.159"/>
    </contour>
  </outline>
</glyph>
